<svg xmlns="http://www.w3.org/2000/svg" viewBox="0 0 40 40"><g data-name="Layer 2"><g data-name="Layer 1"><rect width="40" height="40" rx="3" style="fill:#eaeaea"/><path d="M27.93 20.75c.3.11.62.14.93.22a17.72 17.72 0 0 1 4.45 1.62 9 9 0 0 1 .84.52 2.09 2.09 0 0 1 .36 3 1.5 1.5 0 0 1-1.54.47 3.92 3.92 0 0 1-1.29-.58c-.63-.44-1.15-1-1.77-1.46a6.42 6.42 0 0 0-1.49-.84.45.45 0 0 0-.36 0c-.57.26-1.1.58-1.64.87a24 24 0 0 1-4.09 1.88 8.47 8.47 0 0 1-5.08.21 10.9 10.9 0 0 1-2.5-1.15c-.27-.15-.53-.32-.79-.49a.29.29 0 0 0-.22 0 31.42 31.42 0 0 1-4.1.61 9.39 9.39 0 0 1-2.85-.13 2.6 2.6 0 0 1-.9-.35.31.31 0 0 1-.15-.17A13.69 13.69 0 0 1 5 20.19a9.13 9.13 0 0 1 2.2-5.81 10.42 10.42 0 0 1 3.91-2.81 12.58 12.58 0 0 1 2.53-.79c0-.07-.06-.08-.09-.12a.29.29 0 0 1 .17-.48c.4-.07.79-.12 1.19-.17a.3.3 0 0 1 .31.17.29.29 0 0 1-.06.35 1 1 0 0 1-.59.14 1.27 1.27 0 0 0-1 .46 9.81 9.81 0 0 0-1.17 1.74 12 12 0 0 0-1.12 3.66c-.1.71-.15 1.42-.2 2.13s0 1.28 0 1.92v.47c.06.54.09 1.08.16 1.61 0 .15.08.17.2.13l1.49-.41 1.48-.38c.58-.15 1.17-.3 1.76-.42s1.08-.26 1.63-.35 1.37-.25 2.06-.34 1.27-.17 1.9-.23 1.19-.09 1.79-.11h3.23ZM7.26 24.23a.23.23 0 0 0 .14.1 5.65 5.65 0 0 0 1.47.24 16.24 16.24 0 0 0 2.31-.1l1.6-.21h.09c.02 0 0-.08-.06-.1-.48-.38-.91-.81-1.36-1.23a.15.15 0 0 0-.16 0c-.39.08-.78.2-1.17.31-.59.17-1.18.37-1.77.59-.35.08-.72.24-1.09.4Z" style="fill:#8c8c8c"/><path d="m27.93 20.75-1.15-.09h-.51c-.9-.05-1.81-.06-2.72 0-.6 0-1.19.05-1.79.11s-1.27.14-1.9.23-1.37.23-2.06.34-1.09.23-1.63.35-1.18.27-1.76.42l-1.36.35-1.49.41c-.12 0-.18 0-.2-.13-.07-.53-.1-1.07-.16-1.61v-.47c0-.64-.08-1.28 0-1.92s.1-1.42.2-2.13a12 12 0 0 1 1.12-3.66 9.81 9.81 0 0 1 1.17-1.74 1.27 1.27 0 0 1 1-.46 1 1 0 0 0 .59-.14h1.57a13.13 13.13 0 0 1 4.51.86 10.71 10.71 0 0 1 3.8 2.45A9.86 9.86 0 0 1 27.72 19a9 9 0 0 1 .21 1.75Z" style="fill:#dbdbdb"/><path d="M7.26 24.23c.37-.16.73-.32 1.09-.46.59-.22 1.18-.42 1.77-.59.39-.11.78-.23 1.17-.31a.15.15 0 0 1 .16 0c.45.42.88.85 1.36 1.23 0 0 .08.05.06.1s-.06 0-.09 0l-1.6.21a16.24 16.24 0 0 1-2.31.1 5.65 5.65 0 0 1-1.47-.24.23.23 0 0 1-.14-.04Z" style="fill:#bcbcbc"/></g></g></svg>