<svg xmlns="http://www.w3.org/2000/svg" viewBox="0 0 56 56"><defs><style>.cls-1{fill:#fff;}.cls-2{fill:#e85f5f;}.cls-3{fill:#d8d8d8;}.cls-4{fill:#aa4949;}</style></defs><g id="Layer_2" data-name="Layer 2"><g id="Layer_1-2" data-name="Layer 1"><rect class="cls-1" width="56" height="56" rx="6.72"/><g id="z5JgDV.tif"><path class="cls-2" d="M39.11,29.05a11.48,11.48,0,0,0,1.29.3,25.1,25.1,0,0,1,6.24,2.28,12,12,0,0,1,1.18.72,2.93,2.93,0,0,1,.49,4.24,2.07,2.07,0,0,1-2.15.66,5.39,5.39,0,0,1-1.81-.9c-.88-.62-1.61-1.42-2.47-2.05a8.75,8.75,0,0,0-2.09-1.17.61.61,0,0,0-.51,0c-.8.36-1.54.81-2.3,1.22A33.22,33.22,0,0,1,31.26,37a11.83,11.83,0,0,1-7.11.3,15.39,15.39,0,0,1-3.5-1.6c-.38-.22-.74-.46-1.11-.7a.4.4,0,0,0-.3-.06,44.53,44.53,0,0,1-5.75.85,13,13,0,0,1-4-.18,3.89,3.89,0,0,1-1.26-.49.48.48,0,0,1-.2-.24,19.18,19.18,0,0,1-1-6.59,12.76,12.76,0,0,1,3.09-8.14,14.67,14.67,0,0,1,5.47-3.94,17.5,17.5,0,0,1,3.54-1.1c0-.1-.09-.11-.13-.17a.41.41,0,0,1,.24-.67c.56-.1,1.11-.17,1.67-.24a.42.42,0,0,1,.43.24.43.43,0,0,1-.08.5,1.61,1.61,0,0,1-.83.19,1.78,1.78,0,0,0-1.35.64A12.87,12.87,0,0,0,17.42,18a16.71,16.71,0,0,0-1.57,5.12c-.15,1-.21,2-.28,3s0,1.8.06,2.69c0,.22,0,.45,0,.67.09.75.14,1.5.24,2.25,0,.21.11.23.27.18l2.09-.58,1.9-.49c.82-.21,1.64-.41,2.46-.59s1.52-.37,2.29-.49c1-.15,1.92-.34,2.89-.47s1.77-.24,2.65-.33,1.68-.12,2.51-.15q1.91,0,3.81.06l.71.05ZM10.16,33.93a.31.31,0,0,0,.2.13,7.21,7.21,0,0,0,2.06.33,21.82,21.82,0,0,0,3.23-.13c.74-.08,1.49-.18,2.24-.3,0,0,.1,0,.13,0s0-.11-.08-.14c-.68-.53-1.28-1.13-1.91-1.72a.22.22,0,0,0-.22,0c-.55.11-1.09.27-1.64.43-.83.25-1.66.53-2.47.83C11.18,33.47,10.68,33.7,10.16,33.93Z"/><path class="cls-3" d="M39.11,29.05l-1.62-.13-.71-.05q-1.91-.11-3.81-.06c-.83,0-1.67.07-2.51.15s-1.77.21-2.65.33-1.93.32-2.89.47c-.77.12-1.52.33-2.29.49s-1.64.38-2.46.59l-1.9.49-2.09.58c-.16.05-.25,0-.27-.18-.1-.75-.15-1.5-.24-2.25,0-.22,0-.45,0-.67,0-.89-.11-1.79-.06-2.69s.13-2,.28-3A16.71,16.71,0,0,1,17.42,18a12.87,12.87,0,0,1,1.64-2.44,1.78,1.78,0,0,1,1.35-.64,1.61,1.61,0,0,0,.83-.19c.73,0,1.46-.08,2.2-.06a18.45,18.45,0,0,1,6.31,1.2,14.94,14.94,0,0,1,5.32,3.43,13.93,13.93,0,0,1,3.74,7.2A14.44,14.44,0,0,1,39.11,29.05Z"/><path class="cls-4" d="M10.16,33.93c.52-.23,1-.46,1.54-.65.81-.3,1.64-.58,2.47-.83.55-.16,1.09-.32,1.64-.43a.22.22,0,0,1,.22,0c.63.59,1.23,1.19,1.91,1.72,0,0,.1.07.08.14s-.09,0-.13,0c-.75.12-1.5.22-2.24.3a21.82,21.82,0,0,1-3.23.13,7.21,7.21,0,0,1-2.06-.33A.31.31,0,0,1,10.16,33.93Z"/></g></g></g></svg>