<svg xmlns="http://www.w3.org/2000/svg" viewBox="0 0 56 56"><defs><style>.cls-2{fill:#2f2f2f}</style></defs><g id="Layer_2" data-name="Layer 2"><g id="Layer_1-2" data-name="Layer 1"><rect width="56" height="56" rx="6.72" style="fill:#fff"/><path class="cls-2" d="m26.12 39.85-.91.66c-.89.66-1.45.5-1.82-.56-.43-1.27-.8-2.56-1.24-3.82a1 1 0 0 1 .63-1.41 3.06 3.06 0 0 0 1.87-2.51 1.23 1.23 0 0 0-.7-1.4c-.5-.22-.71.29-1 .58a1.45 1.45 0 0 1-2 0 8 8 0 0 1-2.27-2.95 6 6 0 0 0-5.21-3.12c-1.45-.1-2.88 0-4.32 0-2.25 0-2.24 0-2.23 2.24a53 53 0 0 0 1.35 13.01 8.28 8.28 0 0 0 .24.81c.83 2.21 2.32 3 4.66 2.52A16.56 16.56 0 0 0 20 40.45a1.7 1.7 0 0 1 .7-.44 1 1 0 0 1 1.13.47.73.73 0 0 1-.23 1.06c-.75.57-1.49 1.15-2.27 1.67a.72.72 0 0 0-.34 1 7 7 0 0 1 .26 4c-.17.61-.5 1-1.13.81a.91.91 0 0 1-.7-1.29 4 4 0 0 0 .11-.92 2.72 2.72 0 0 0-.36-1.9c-.53-.59-1.12.19-1.67.35a14.71 14.71 0 0 1-3.48.69 4.75 4.75 0 0 1-4.81-3 22.7 22.7 0 0 1-1.7-6.49A60.94 60.94 0 0 1 5 25.3a1.19 1.19 0 0 0-.27-1 3.36 3.36 0 0 1-.7-3.58 12 12 0 0 1 8.14-8 18.23 18.23 0 0 1 14.83.99.74.74 0 0 0 1-.13 18.23 18.23 0 0 1 1.41-1.37c.21-.18.51-.47.7-.42.94.22 1.06-.52 1.39-1.06 1.36-2.25 3.57-3.15 6-3.54a15.3 15.3 0 0 1 8.45 1 10 10 0 0 1 5.57 12.49c-1 2.91-2.57 5.55-3.77 8.35a12.53 12.53 0 0 0-1.42 5.1 9.34 9.34 0 0 0 .19 1.58c.16.88-.39 1.36-1.27 1.15a8.1 8.1 0 0 1-5.94-8.82c.3-2.2 1.11-4.29 1.28-6.51a8.31 8.31 0 0 0-.12-2.34 3.78 3.78 0 0 0-5.19-2.94c-.4.13-.5.22-.28.62a.92.92 0 0 1-.39 1.36c-1.51.86-1.79 1.86-1.31 3.69 1.35 5.2-.34 9.93-3.66 13.86-2 2.35-1.84 4.72-1.6 7.31a7.25 7.25 0 0 0 1.05 3.08.85.85 0 0 1-.09 1.36.92.92 0 0 1-1.42-.39 10 10 0 0 1-1.4-4.8c-.1-.74-.06-1.49-.06-2.49Zm-1.23-1.46A20.61 20.61 0 0 0 31.6 27.2c1.11-5.44-1.23-10.1-6.23-12.24a17.5 17.5 0 0 0-13-.41 9.63 9.63 0 0 0-6.36 6c-.68 2-.28 2.43 1.75 2.88a5.09 5.09 0 0 0 .56 0c1.72.15 3.44-.1 5.16 0 2.71.17 5.05 1.11 6.52 3.59.41.7.88 1.36 1.31 2.05.33.52.58.61 1.13.14 1.72-1.46 3.59-.82 4.08 1.4a5.2 5.2 0 0 1-1.82 5c-.26.25-.63.43-.45.91s.41 1.22.64 1.87ZM40.26 8.82a9.54 9.54 0 0 0-4.75 1 5.44 5.44 0 0 0-2.83 3.32c-.23.75.24 1.1.6 1.54s.68 0 1 0a6.21 6.21 0 0 0 .8-.26c3.42-1 6.28.57 7.14 3.86a11.55 11.55 0 0 1 .12 4.93c-.31 1.85-1 3.62-1.12 5.49a5.76 5.76 0 0 0 2.65 5.54c.24.16.6.47.61-.16.06-2.88 1.38-5.34 2.56-7.85a49.92 49.92 0 0 0 2.66-6A8.14 8.14 0 0 0 45 9.75a11 11 0 0 0-4.74-.93Zm-7.38 8.4a1.94 1.94 0 0 0-.15-.24c-.73-.88-1.45-1.78-2.2-2.65-.46-.53-.61.12-.84.3s-.71.34-.21.76a11.19 11.19 0 0 1 2.11 2.34c.11.15.21.47.49.24a2.29 2.29 0 0 0 .8-.75Z" id="NXjfmX"/><path d="M32.88 17.22a1.94 1.94 0 0 0-.15-.24c-.73-.88-1.45-1.78-2.2-2.65-.46-.53-.61.12-.84.3s-.71.34-.21.76a11.19 11.19 0 0 1 2.11 2.34c.11.15.21.47.49.24a2.29 2.29 0 0 0 .8-.75Z" style="fill:#e85f5f"/><path class="cls-2" d="M40.26 8.82a9.54 9.54 0 0 0-4.75 1 5.44 5.44 0 0 0-2.83 3.32c-.23.75.24 1.1.6 1.54s.68 0 1 0a6.21 6.21 0 0 0 .8-.26c3.42-1 6.28.57 7.14 3.86a11.55 11.55 0 0 1 .12 4.93c-.31 1.85-1 3.62-1.12 5.49a5.76 5.76 0 0 0 2.65 5.54c.24.16.6.47.61-.16.06-2.88 1.38-5.34 2.56-7.85a49.92 49.92 0 0 0 2.66-6A8.14 8.14 0 0 0 45 9.75a11 11 0 0 0-4.74-.93Z"/></g></g></svg>