<svg xmlns="http://www.w3.org/2000/svg" viewBox="0 0 40 40"><defs><style>.cls-1{fill:#eaeaea;}.cls-2{fill:#8c8c8c;}</style></defs><g id="Layer_2" data-name="Layer 2"><g id="Layer_1-2" data-name="Layer 1"><rect class="cls-1" width="40" height="40" rx="3"/><g id="NXjfmX"><path class="cls-2" d="M18.66,28.46l-.65.48c-.64.47-1,.36-1.3-.41s-.58-1.82-.89-2.72a.71.71,0,0,1,.45-1A2.19,2.19,0,0,0,17.61,23a.88.88,0,0,0-.5-1c-.36-.16-.51.21-.72.41a1,1,0,0,1-1.45,0,5.78,5.78,0,0,1-1.62-2.11A4.28,4.28,0,0,0,9.6,18.12c-1-.08-2.06,0-3.09,0-1.6,0-1.59,0-1.59,1.61a38.22,38.22,0,0,0,1,9.23,3.74,3.74,0,0,0,.17.57,2.58,2.58,0,0,0,3.33,1.81,11.86,11.86,0,0,0,4.84-2.47,1.24,1.24,0,0,1,.5-.31.71.71,0,0,1,.81.33.52.52,0,0,1-.17.76c-.53.41-1.06.82-1.62,1.19a.51.51,0,0,0-.24.7,5.08,5.08,0,0,1,.18,2.84c-.11.43-.35.69-.8.57a.64.64,0,0,1-.5-.92,2.9,2.9,0,0,0,.07-.66A1.94,1.94,0,0,0,12.23,32c-.38-.42-.8.13-1.2.25a10.9,10.9,0,0,1-2.48.49A3.4,3.4,0,0,1,5.11,30.6,16.15,16.15,0,0,1,3.9,26a43.46,43.46,0,0,1-.3-7.9.86.86,0,0,0-.19-.74,2.4,2.4,0,0,1-.5-2.56A8.62,8.62,0,0,1,8.72,9a13,13,0,0,1,10.57.76c.31.16.51.18.75-.09a11.68,11.68,0,0,1,1-1c.15-.13.36-.33.5-.3.67.16.76-.37,1-.75a5.67,5.67,0,0,1,4.29-2.53,10.89,10.89,0,0,1,6,.75,7.11,7.11,0,0,1,4,8.92c-.7,2.07-1.83,4-2.7,6a9.09,9.09,0,0,0-1,3.65,6,6,0,0,0,.14,1.12c.12.63-.28,1-.91.83a5.79,5.79,0,0,1-4.24-6.3c.22-1.58.79-3.07.92-4.66A6.57,6.57,0,0,0,29,13.75a2.7,2.7,0,0,0-3.71-2.11c-.29.1-.36.16-.2.45a.65.65,0,0,1-.28,1c-1.08.61-1.28,1.33-.94,2.63,1,3.72-.23,7.1-2.61,9.9C19.8,27.27,19.9,29,20.08,30.82A5.2,5.2,0,0,0,20.83,33a.62.62,0,0,1-.15.94.66.66,0,0,1-1-.28,7.27,7.27,0,0,1-1-3.43C18.63,29.71,18.66,29.18,18.66,28.46Zm-.88-1a14.69,14.69,0,0,0,4.79-8,7.39,7.39,0,0,0-4.45-8.74,12.44,12.44,0,0,0-9.27-.29,6.81,6.81,0,0,0-4.54,4.31c-.49,1.41-.2,1.73,1.25,2.05a2.6,2.6,0,0,0,.4,0c1.23.11,2.46-.07,3.68,0a5.37,5.37,0,0,1,4.66,2.57c.29.49.63,1,.94,1.46s.41.44.8.1a1.66,1.66,0,0,1,2.92,1,3.72,3.72,0,0,1-1.3,3.59c-.19.18-.45.31-.32.65S17.61,27,17.78,27.42Zm11-21.12A6.74,6.74,0,0,0,25.37,7a3.92,3.92,0,0,0-2,2.37c-.16.54.18.79.43,1.1s.49,0,.73,0a4.23,4.23,0,0,0,.57-.19A3.83,3.83,0,0,1,30.17,13a8.19,8.19,0,0,1,.09,3.52c-.23,1.32-.69,2.59-.8,3.92a4.09,4.09,0,0,0,1.89,4c.17.11.43.34.44-.12,0-2,1-3.81,1.82-5.6a35.36,35.36,0,0,0,1.9-4.27A5.82,5.82,0,0,0,32.11,7,7.82,7.82,0,0,0,28.75,6.3Zm-5.26,6c0-.06-.07-.12-.11-.17-.52-.63-1-1.27-1.57-1.9-.33-.37-.44.09-.6.22s-.51.25-.15.54a8.27,8.27,0,0,1,1.51,1.67c.07.11.15.34.34.18S23.37,12.56,23.49,12.3Z"/><path class="cls-2" d="M28.75,6.3A7.82,7.82,0,0,1,32.11,7a5.82,5.82,0,0,1,3.4,7.48,35.36,35.36,0,0,1-1.9,4.27c-.84,1.79-1.78,3.55-1.82,5.6,0,.46-.27.23-.44.12a4.09,4.09,0,0,1-1.89-4c.11-1.33.57-2.6.8-3.92A8.19,8.19,0,0,0,30.17,13a3.83,3.83,0,0,0-5.1-2.76,4.23,4.23,0,0,1-.57.19c-.24,0-.48.34-.73,0s-.59-.56-.43-1.1a3.92,3.92,0,0,1,2-2.37A6.74,6.74,0,0,1,28.75,6.3Z"/></g></g></g></svg>