<svg xmlns="http://www.w3.org/2000/svg" viewBox="0 0 56 56"><g data-name="Layer 2"><g data-name="Layer 1"><rect width="56" height="56" rx="6.72" style="fill:#fff"/><path d="M49 20.21c-.07.23-.12.47-.2.7a3.81 3.81 0 0 1-3.68 2.63H34.54a3.84 3.84 0 0 1-1.94-7.18 3.92 3.92 0 0 1 2.12-.51A5.13 5.13 0 0 1 37.07 12a5 5 0 0 1 3.32-.78 5.12 5.12 0 0 1 4.55 4.64c.23 0 .48 0 .71.06A3.81 3.81 0 0 1 48.92 19a1.42 1.42 0 0 0 .08.18Z" style="fill:#bff"/><path d="m35 37.4 3.07-3.58L40 31.64a.91.91 0 0 1 1.66.2q2.94 5.76 5.89 11.53c.43.84 0 1.47-.9 1.47H8.35a3.75 3.75 0 0 1-.58 0 .86.86 0 0 1-.7-1.21 3.47 3.47 0 0 1 .18-.33Q14.5 31 21.75 18.78a1.55 1.55 0 0 1 .67-.6c.4-.17.76.05 1 .51L27 24.48q3.88 6.29 7.76 12.59Z" style="fill:#74d47b"/></g></g></svg>