<svg xmlns="http://www.w3.org/2000/svg" viewBox="0 0 40 40"><g data-name="Layer 2"><g data-name="Layer 1"><rect width="40" height="40" rx="3" style="fill:#eaeaea"/><path d="M35 14.43c0 .17-.09.34-.14.51a2.72 2.72 0 0 1-2.63 1.87h-7.56a2.7 2.7 0 0 1-2.67-2.1 2.73 2.73 0 0 1 1.3-3 2.81 2.81 0 0 1 1.52-.37 3.65 3.65 0 0 1 1.68-2.77A3.6 3.6 0 0 1 28.85 8a3.67 3.67 0 0 1 3.25 3.32 4.38 4.38 0 0 1 .51 0A2.74 2.74 0 0 1 35 13.54a.5.5 0 0 0 0 .13ZM25 26.71l2.2-2.55 1.34-1.56a.64.64 0 0 1 1.18.15q2.11 4.11 4.21 8.23c.31.6 0 1.05-.64 1.05H5.55a.63.63 0 0 1-.5-.87 1.71 1.71 0 0 1 .13-.23q5.18-8.76 10.36-17.51A1.05 1.05 0 0 1 16 13c.28-.11.54 0 .74.37l2.55 4.13 5.55 9Z" style="fill:#8c8c8c"/></g></g></svg>