<svg xmlns="http://www.w3.org/2000/svg" viewBox="0 0 56 56"><g data-name="Layer 2"><g data-name="Layer 1"><rect width="56" height="56" rx="6.72" style="fill:#fff"/><path d="M28 23.45c.56-.44 1.08-.92 1.66-1.31a6.65 6.65 0 0 1 7.4-.33 25.57 25.57 0 0 1 3.34 2.39c.68.53 1.37 1.06 2.09 1.53a4.52 4.52 0 0 0 5.24-.17 4.48 4.48 0 0 1 .68-.37.4.4 0 0 1 .59.41 2.28 2.28 0 0 1-.09.74 14 14 0 0 1-3.18 5.6 10.07 10.07 0 0 1-6.35 3.11 13.39 13.39 0 0 1-6.63-.85 11.07 11.07 0 0 1-4.59-3.44l-.16-.18c-.4.44-.78.89-1.2 1.29A11.51 11.51 0 0 1 20.2 35a13 13 0 0 1-5.26-.28 10.2 10.2 0 0 1-5.73-4.06 14.23 14.23 0 0 1-2.1-4.26 2.68 2.68 0 0 1-.11-.84.38.38 0 0 1 .56-.37 3.28 3.28 0 0 1 .64.34 4.55 4.55 0 0 0 5.11.3 13.52 13.52 0 0 0 1.28-.83c1.06-.8 2.09-1.65 3.16-2.43a8.29 8.29 0 0 1 3.66-1.62 6.67 6.67 0 0 1 5.12 1.35c.47.35.97.76 1.47 1.15Z" style="fill:#825944"/></g></g></svg>