<svg xmlns="http://www.w3.org/2000/svg" viewBox="0 0 40 40"><defs><style>.cls-1{fill:#eaeaea;}.cls-2{fill:#8c8c8c;}</style></defs><g id="Layer_2" data-name="Layer 2"><g id="Layer_1-2" data-name="Layer 1"><rect class="cls-1" width="40" height="40" rx="3"/><g id="y2B9hc.tif"><path class="cls-2" d="M20,16.75c.4-.31.78-.65,1.19-.94a4.78,4.78,0,0,1,5.29-.23,17.44,17.44,0,0,1,2.4,1.71c.48.38,1,.75,1.49,1.09a3.25,3.25,0,0,0,3.74-.12,3.36,3.36,0,0,1,.49-.27.29.29,0,0,1,.42.3,1.52,1.52,0,0,1-.07.52,10,10,0,0,1-2.27,4A7.19,7.19,0,0,1,28.13,25a9.59,9.59,0,0,1-4.74-.61A8,8,0,0,1,20.12,22L20,21.84c-.29.32-.56.64-.86.93A8.28,8.28,0,0,1,14.43,25a9.35,9.35,0,0,1-3.76-.2,7.31,7.31,0,0,1-4.09-2.9,10.27,10.27,0,0,1-1.5-3A2.13,2.13,0,0,1,5,18.26.27.27,0,0,1,5.4,18a2.42,2.42,0,0,1,.45.24,3.25,3.25,0,0,0,3.66.22,9,9,0,0,0,.91-.61c.76-.57,1.49-1.17,2.26-1.73A5.75,5.75,0,0,1,15.3,15a4.79,4.79,0,0,1,3.65,1C19.31,16.18,19.64,16.47,20,16.75Z"/></g></g></g></svg>