<svg xmlns="http://www.w3.org/2000/svg" viewBox="0 0 40 40"><defs><style>.cls-1{fill:#eaeaea;}.cls-2{fill:none;stroke:#8c8c8c;stroke-miterlimit:10;}.cls-3{fill:#8c8c8c;}</style></defs><g id="Layer_2" data-name="Layer 2"><g id="Layer_1-2" data-name="Layer 1"><rect class="cls-1" width="40" height="40" rx="3"/><g id="odnpeJ.tif"><path class="cls-2" d="M34.91,27.46H23a.21.21,0,0,1-.22-.13,9.91,9.91,0,0,0-2.19-2.83c-.1-.09-.09-.13,0-.23a8.24,8.24,0,0,0,1.5-5.2,8.16,8.16,0,0,0-2-5,.2.2,0,0,1,0-.25,6.79,6.79,0,0,1,5.2-3.94A6.87,6.87,0,0,1,33,15a6.75,6.75,0,0,1-2,6.7l-.11.09a9.83,9.83,0,0,1,1.15.86,8.72,8.72,0,0,1,2.77,4.64l0,.08Z"/><path class="cls-3" d="M13.68,30.23H5.25c-.18,0-.18,0-.14-.17A8.75,8.75,0,0,1,8.9,24.69c.09-.07.11-.1,0-.18a6.87,6.87,0,0,1-2.06-3.86,6.92,6.92,0,0,1,5.44-7.95,6.64,6.64,0,0,1,5.76,1.41,6.49,6.49,0,0,1,2.46,4.22,6.79,6.79,0,0,1-2.09,6.21c-.09.09,0,.1,0,.14A8.75,8.75,0,0,1,20.85,27a9,9,0,0,1,1.42,3.14c0,.14,0,.14-.14.14Z"/></g></g></g></svg>