<svg xmlns="http://www.w3.org/2000/svg" viewBox="0 0 40 40"><defs><style>.cls-1{fill:#eaeaea;}.cls-2{fill:#8c8c8c;}</style></defs><g id="Layer_2" data-name="Layer 2"><g id="Layer_1-2" data-name="Layer 1"><rect class="cls-1" width="40" height="40" rx="3"/><g id="iYJd3A.tif"><path class="cls-2" d="M8.68,30c-.24-.05-.48-.07-.71-.14A2.53,2.53,0,0,1,6.17,28a2.75,2.75,0,0,1,1.27-3c.38-.2.74-.43,1.11-.65l10.5-6.2a.16.16,0,0,0,.11-.18c0-.17,0-.34,0-.5a.75.75,0,0,0-.32-.68c-.21-.17-.43-.33-.65-.48a3.06,3.06,0,0,1-1.44-2.86,3.58,3.58,0,0,1,1.9-3.06,3.57,3.57,0,0,1,3.58.31A3.44,3.44,0,0,1,23.65,13a1.14,1.14,0,0,1-.44,1.18.84.84,0,0,1-1.33-.4,1.43,1.43,0,0,1-.09-.41,1.57,1.57,0,1,0-2.55,1.37,1.89,1.89,0,0,0,.3.19,2.8,2.8,0,0,1,1.05.82A1.8,1.8,0,0,1,21,16.87v1.06a.16.16,0,0,0,.1.17l8.81,5.23,2.7,1.6a2.56,2.56,0,0,1,1.26,1.63,1.84,1.84,0,0,1,0,.25v.78a.29.29,0,0,1,0,.09,2.53,2.53,0,0,1-2.07,2.23c-.19,0-.39.06-.59.09ZM20,28h11a1.23,1.23,0,0,0,.27,0,.79.79,0,0,0,.21-1.47L29,25.15,20.1,19.89a.2.2,0,0,0-.22,0L10,25.69l-1.54.9a.75.75,0,0,0-.38.6.83.83,0,0,0,.83.85Z"/></g></g></g></svg>