<svg xmlns="http://www.w3.org/2000/svg" viewBox="0 0 56 56"><defs><style>.cls-1{fill:#fff;}.cls-2{fill:#2f2f2f;}</style></defs><g id="Layer_2" data-name="Layer 2"><g id="Layer_1-2" data-name="Layer 1"><rect class="cls-1" width="56" height="56" rx="6.72"/><g id="iYJd3A.tif"><path class="cls-2" d="M12.15,42a8.26,8.26,0,0,1-1-.2,3.54,3.54,0,0,1-2.52-2.68,3.81,3.81,0,0,1,1.78-4.18c.52-.29,1-.61,1.55-.91l14.71-8.68a.28.28,0,0,0,.15-.27c0-.23,0-.46,0-.7a1.07,1.07,0,0,0-.45-.95c-.3-.23-.6-.45-.92-.66a4.25,4.25,0,0,1-2-4,5,5,0,0,1,2.66-4.29A4.4,4.4,0,0,1,28.65,14a4.67,4.67,0,0,1,2.48.89,4.84,4.84,0,0,1,2,3.3,1.62,1.62,0,0,1-.62,1.66,1.17,1.17,0,0,1-1.85-.56,1.88,1.88,0,0,1-.13-.58,2.2,2.2,0,0,0-4.39,0,2.16,2.16,0,0,0,.81,1.88,1.9,1.9,0,0,0,.43.26,4,4,0,0,1,1.47,1.15,2.51,2.51,0,0,1,.53,1.56V25.1a.22.22,0,0,0,.13.24l12.34,7.32,3.78,2.25a3.47,3.47,0,0,1,1.76,2.28,3.38,3.38,0,0,1,.08.34v1.1l0,.12a3.55,3.55,0,0,1-2.9,3.12c-.27.06-.55.09-.83.13Zm15.79-2.75H43.32a2.3,2.3,0,0,0,.37,0,1.11,1.11,0,0,0,.3-2.06l-3.33-2L28.14,27.84a.26.26,0,0,0-.3,0L14,36l-2.15,1.27a1,1,0,0,0-.53.83,1.17,1.17,0,0,0,1.17,1.2Z"/></g></g></g></svg>