<svg xmlns="http://www.w3.org/2000/svg" viewBox="0 0 60 60"><defs><style>.cls-1{fill:#f9f9f9;}.cls-2{fill:none;stroke:#2f2f2f;stroke-miterlimit:10;stroke-width:2px;}.cls-3{fill:#e85f5f;}.cls-4{fill:#fddd57;}.cls-5{fill:#649dec;}.cls-6{fill:#74d47b;}.cls-7{fill:#ae5ce2;}.cls-8{fill:#ed8846;}.cls-9{fill:#2f2f2f;}</style></defs><g id="Layer_2" data-name="Layer 2"><g id="Layer_1-2" data-name="Layer 1"><circle class="cls-1" cx="30" cy="30" r="30"/><circle class="cls-2" cx="30" cy="30" r="27"/><g id="nZpaRN.tif"><path class="cls-3" d="M30,9a20.89,20.89,0,0,1,15.43,6.39c-.3,0-.46.21-.65.4l-5.88,5.88c-.18.18-.4.35-.39.64A12.29,12.29,0,0,0,30,18.64Z"/><path class="cls-4" d="M51.51,30.47a20.8,20.8,0,0,1-6.26,15.27l-6.9-6.89a12.45,12.45,0,0,0,3.5-8.38Z"/><path class="cls-5" d="M30,52a20.65,20.65,0,0,1-15.26-6.28l6.85-6.9A12.31,12.31,0,0,0,30,42.31Z"/><path class="cls-6" d="M30,52V42.31a12.43,12.43,0,0,0,8.34-3.46l6.9,6.89A20.54,20.54,0,0,1,34,51.65,14.93,14.93,0,0,1,30,52Z"/><path class="cls-7" d="M21.6,38.79l-6.85,6.9A20.4,20.4,0,0,1,8.84,34.45a16.44,16.44,0,0,1-.33-4h9.67A12.22,12.22,0,0,0,21.6,38.79Z"/><path class="cls-8" d="M51.51,30.47H41.85a12.34,12.34,0,0,0-3.33-8.18c0-.29.21-.46.39-.64l5.88-5.88c.19-.19.35-.4.65-.4A21.1,21.1,0,0,1,51.51,30.47Z"/></g><path class="cls-9" d="M26.08,10.53,22.54,8.17a1,1,0,0,0-1.39.28l-3.21,4.81-1.08-.74a.53.53,0,0,0-.72.14l-.46.69a.54.54,0,0,0,.15.74l1.16.75a2.6,2.6,0,0,0-.24.27L11.47,23a.63.63,0,0,0-.13.36,14.17,14.17,0,0,0,.09,1.6A2,2,0,0,1,11,26.77a2.53,2.53,0,0,0-.18.27,1.49,1.49,0,0,0,2.5,1.62c.19-.28.37-.57.57-.84a.87.87,0,0,1,.32-.25c.7-.26,1.41-.49,2.11-.76a1,1,0,0,0,.42-.33q2.64-3.94,5.27-7.91a1.31,1.31,0,0,0,.09-.28l.09,0,1,.67a.68.68,0,0,0,.94-.18l.29-.45a.7.7,0,0,0-.2-1l-1-.63,3.18-4.76A1,1,0,0,0,26.08,10.53Zm-5.95,7.39L17.9,21.27a.56.56,0,0,1-.27.22l-3.14.63h0l3.81-5.71,2,1.31C20.21,17.78,20.18,17.85,20.13,17.92Z"/></g></g></svg>