<svg xmlns="http://www.w3.org/2000/svg" viewBox="0 0 60 60"><g data-name="Layer 2"><g data-name="Layer 1"><circle cx="30" cy="30" r="30" style="fill:#f9f9f9"/><circle cx="30" cy="30" r="27" style="fill:none;stroke:#2f2f2f;stroke-miterlimit:10;stroke-width:2px"/><path d="M30 9a20.89 20.89 0 0 1 15.43 6.39c-.3 0-.46.21-.65.4l-5.88 5.88c-.18.18-.4.35-.39.64A12.29 12.29 0 0 0 30 18.64Z" style="fill:#e85f5f"/><path d="M51.51 30.47a20.8 20.8 0 0 1-6.26 15.27l-6.9-6.89a12.45 12.45 0 0 0 3.5-8.38Z" style="fill:#fddd57"/><path d="M30 52a20.65 20.65 0 0 1-15.26-6.28l6.85-6.9A12.31 12.31 0 0 0 30 42.31Z" style="fill:#649dec"/><path d="M30 52v-9.69a12.43 12.43 0 0 0 8.34-3.46l6.9 6.89A20.54 20.54 0 0 1 34 51.65a14.93 14.93 0 0 1-4 .35Z" style="fill:#74d47b"/><path d="m21.6 38.79-6.85 6.9a20.4 20.4 0 0 1-5.91-11.24 16.44 16.44 0 0 1-.33-4h9.67a12.22 12.22 0 0 0 3.42 8.34Z" style="fill:#ae5ce2"/><path d="M51.51 30.47h-9.66a12.34 12.34 0 0 0-3.33-8.18c0-.29.21-.46.39-.64l5.88-5.88c.19-.19.35-.4.65-.4a21.1 21.1 0 0 1 6.07 15.1Z" style="fill:#ed8846"/><path d="m26.08 10.53-3.54-2.36a1 1 0 0 0-1.39.28l-3.21 4.81-1.08-.74a.53.53 0 0 0-.72.14l-.46.69a.54.54 0 0 0 .15.74l1.16.75a2.6 2.6 0 0 0-.24.27L11.47 23a.63.63 0 0 0-.13.36 14.17 14.17 0 0 0 .09 1.6 2 2 0 0 1-.43 1.81 2.53 2.53 0 0 0-.18.27 1.49 1.49 0 0 0 2.5 1.62c.19-.28.37-.57.57-.84a.87.87 0 0 1 .32-.25c.7-.26 1.41-.49 2.11-.76a1 1 0 0 0 .42-.33q2.64-3.94 5.27-7.91a1.31 1.31 0 0 0 .09-.28h.09l1 .67a.68.68 0 0 0 .94-.18l.29-.45a.7.7 0 0 0-.2-1l-1-.63 3.18-4.76a1 1 0 0 0-.32-1.41Zm-5.95 7.39-2.23 3.35a.56.56 0 0 1-.27.22l-3.14.63 3.81-5.71 2 1.31c-.09.06-.12.13-.17.2Z" style="fill:#2f2f2f"/></g></g></svg>