<svg xmlns="http://www.w3.org/2000/svg" viewBox="0 0 36 37.06"><defs><style>.cls-1{fill:#f9f9f9}</style></defs><g id="Layer_2" data-name="Layer 2"><g id="Layer_1-2" data-name="Layer 1"><g id="YWru0U.tif"><path class="cls-1" d="M19.57 37.06H19a.65.65 0 0 1-.25-.48V16.84A1.74 1.74 0 0 1 20 15.09c3.28-1.37 6.55-2.77 9.83-4.15Q32.37 9.85 35 8.78c.52-.22.83-.13 1 .28v1a1.91 1.91 0 0 0 0 1.16v13.6a2.43 2.43 0 0 0 0 1.31v1.47a2.53 2.53 0 0 1-1.37 1.34c-4.75 2.61-9.52 5.19-14.32 7.69a2.87 2.87 0 0 0-.74.43Zm3-16.22a2.07 2.07 0 0 0 .82 2 1.75 1.75 0 0 0 1.86-.15 3.92 3.92 0 0 0 1.9-3.75 1.63 1.63 0 0 0-2.69-1.27 4 4 0 0 0-1.93 3.17Zm5.86 4.27v.56a1.48 1.48 0 0 0 2.32 1.18 4 4 0 0 0 2-3.63 1.67 1.67 0 0 0-.84-1.55 1.6 1.6 0 0 0-1.77.23 4 4 0 0 0-1.75 3.21ZM17 37.06h-.58l-6.32-3.38q-4.62-2.49-9.23-5A1.55 1.55 0 0 1 0 27.2V11.53c0-.82 0-1.64.07-2.47 0-.33.18-.44.5-.38a1.6 1.6 0 0 1 .31.1C6.06 10.86 11.2 13 16.3 15.24a1.56 1.56 0 0 1 1 1.52v19.56a.91.91 0 0 1-.3.74Zm-1.47-17.55a4.24 4.24 0 0 0-2.24-3.61 1.65 1.65 0 0 0-2.46 1.27A4.12 4.12 0 0 0 13 21.28a1.66 1.66 0 0 0 2.45-1.4c.06-.15.07-.29.08-.37Zm-5 3.51a4.3 4.3 0 0 0-1.65-3.18 2.15 2.15 0 0 0-1.16-.46 1.2 1.2 0 0 0-1 .2A2.1 2.1 0 0 0 6 21a3.48 3.48 0 0 0 .25 1.6 3.62 3.62 0 0 0 2.15 2.32 1.48 1.48 0 0 0 2-1.24c.04-.22.05-.43.08-.68Zm-9 1.57A4 4 0 0 0 3.13 28a1.54 1.54 0 0 0 2.57-1.25 3.53 3.53 0 0 0-.31-1.7A3.64 3.64 0 0 0 3.49 23a1.38 1.38 0 0 0-1.75.45 1.89 1.89 0 0 0-.31 1.14Z"/><path class="cls-1" d="M36 26.15a2.43 2.43 0 0 1 0-1.31Zm0-14.91a1.91 1.91 0 0 1 0-1.16Zm-17.86 2.25a2.86 2.86 0 0 1-1.07-.27C12.93 11.6 8.84 9.86 4.74 8.16L2 7h-.11c-.31-.16-.67-.31-.66-.73s.38-.51.7-.63Q9.63 2.82 17.35.11a1.66 1.66 0 0 1 1.2 0l15.23 5.37a2.3 2.3 0 0 1 .53.23.68.68 0 0 1 .37.62.59.59 0 0 1-.43.53c-2 .84-4 1.7-5.95 2.53-3.21 1.34-6.44 2.66-9.66 4a.85.85 0 0 1-.5.1Zm-.38-5.86a5.79 5.79 0 0 0 2.51-.46c.41-.19.79-.46.78-1a1.13 1.13 0 0 0-.79-1l-.17-.08a5.59 5.59 0 0 0-1.8-.35 5.44 5.44 0 0 0-2.79.49c-.39.2-.76.47-.73 1a1.12 1.12 0 0 0 .76.93 5.77 5.77 0 0 0 2.23.47Z"/></g></g></g></svg>