<svg xmlns="http://www.w3.org/2000/svg" viewBox="0 0 56 56"><g data-name="Layer 2"><g data-name="Layer 1"><rect width="56" height="56" rx="6.72" style="fill:#fff"/><path d="M26.5 10.69a21.45 21.45 0 0 1 9.13 2.08 43.09 43.09 0 0 1 12.81 9.35 2.52 2.52 0 0 1 .3.35.87.87 0 0 1-1 1.37c-1.16-.49-2.31-1-3.47-1.49a73.4 73.4 0 0 0-10.72-3.51 18.06 18.06 0 0 0-11.33 1 42.84 42.84 0 0 0-8.57 4.47 4.07 4.07 0 0 1-6.5-2.71A5.73 5.73 0 0 1 10 15.3a38.69 38.69 0 0 1 11.29-3.85 31.77 31.77 0 0 1 5.21-.76Zm-5.64 29.68-1 2.5a3.11 3.11 0 0 1-.2.41.85.85 0 0 1-1.1.4.84.84 0 0 1-.46-1.08c.13-.42.32-.83.48-1.24l.68-1.66-3.94-2.48-1.45 1.72c-.2.23-.39.48-.61.69a.87.87 0 0 1-1.14.06.78.78 0 0 1-.17-1.11c.58-.77 1.2-1.52 1.84-2.24.29-.31.27-.49 0-.83-.68-.93-1.3-1.9-1.91-2.87a.76.76 0 0 1 .18-1 .79.79 0 0 1 1-.12 1.44 1.44 0 0 1 .47.54 13.14 13.14 0 0 0 7.64 6.37 17.55 17.55 0 0 0 12.06-.19 13.27 13.27 0 0 0 7-6c.07-.12.14-.25.21-.36a.88.88 0 0 1 1.19-.36.83.83 0 0 1 .37 1.15c-.46.81-1 1.59-1.49 2.37a.65.65 0 0 1-.15.18c-.29.27-.29.49 0 .8.7.78 1.35 1.59 2 2.4a.78.78 0 0 1 .1 1 1.16 1.16 0 0 1-.8.41 1.18 1.18 0 0 1-.71-.42c-.61-.67-1.18-1.38-1.77-2.07l-.37-.34L35 39.51c.32.76.65 1.57 1 2.37.07.18.15.34.22.51a.89.89 0 0 1-.43 1.28c-.5.22-.93 0-1.19-.6-.35-.83-.7-1.67-1-2.51-.13-.34-.27-.47-.67-.34a17.53 17.53 0 0 1-4.7.84c-.34 0-.41.14-.41.45v2.76c0 .67-.33 1-.86 1s-.86-.41-.87-1v-2.82c0-.13-.15-.35-.26-.36-1.67-.25-3.28-.48-4.97-.72Z" style="fill:#2f2f2f"/></g></g></svg>