<svg xmlns="http://www.w3.org/2000/svg" viewBox="0 0 40 40"><defs><style>.cls-1{fill:#eaeaea;}.cls-2{fill:#8c8c8c;}</style></defs><g id="Layer_2" data-name="Layer 2"><g id="Layer_1-2" data-name="Layer 1"><rect class="cls-1" width="40" height="40" rx="3"/><g id="SFMXMh"><path class="cls-2" d="M18.93,7.64a15.3,15.3,0,0,1,6.52,1.48A30.78,30.78,0,0,1,34.6,15.8a2.62,2.62,0,0,1,.22.25.62.62,0,0,1-.75,1c-.83-.35-1.65-.72-2.48-1.06a51.2,51.2,0,0,0-7.66-2.51,12.91,12.91,0,0,0-8.09.68,31,31,0,0,0-6.12,3.19,2.9,2.9,0,0,1-4.62-1.9,4.11,4.11,0,0,1,2-4.5,27.53,27.53,0,0,1,8.07-2.75A21.22,21.22,0,0,1,18.93,7.64Z"/><path class="cls-2" d="M14.9,28.84c-.23.54-.49,1.16-.74,1.78l-.14.3a.62.62,0,0,1-.79.28.59.59,0,0,1-.33-.77c.09-.3.23-.6.34-.89l.49-1.18-2.82-1.77-1,1.22a5.24,5.24,0,0,1-.44.5.61.61,0,0,1-.81,0,.55.55,0,0,1-.12-.79c.41-.55.86-1.09,1.31-1.6.21-.23.19-.35,0-.6-.48-.66-.92-1.35-1.36-2.05a.54.54,0,0,1,.13-.72.56.56,0,0,1,.7-.08,1,1,0,0,1,.34.39,9.39,9.39,0,0,0,5.45,4.54,12.52,12.52,0,0,0,8.62-.13,9.51,9.51,0,0,0,5-4.3c.05-.08.09-.17.15-.25a.63.63,0,0,1,.85-.26.59.59,0,0,1,.22.83c-.33.58-.7,1.14-1.06,1.7a.64.64,0,0,1-.1.13c-.21.19-.21.34,0,.57.5.55,1,1.14,1.44,1.72a.54.54,0,0,1,.07.72.81.81,0,0,1-.57.29.77.77,0,0,1-.51-.3c-.43-.48-.84-1-1.26-1.47l-.24-.27L25,28.22l.7,1.7c.05.12.11.24.15.36a.64.64,0,0,1-.3.92c-.35.15-.67,0-.85-.44-.25-.59-.5-1.19-.73-1.79-.1-.24-.2-.34-.49-.24a12.75,12.75,0,0,1-3.35.6c-.24,0-.3.1-.29.32,0,.66,0,1.32,0,2,0,.48-.24.74-.62.74s-.61-.29-.62-.74c0-.67,0-1.34,0-2,0-.09-.11-.25-.19-.26C17.25,29.17,16.11,29,14.9,28.84Z"/></g></g></g></svg>