<svg xmlns="http://www.w3.org/2000/svg" viewBox="0 0 40 40"><defs><style>.cls-1{fill:#eaeaea;}.cls-2{fill:#8c8c8c;}</style></defs><g id="Layer_2" data-name="Layer 2"><g id="Layer_1-2" data-name="Layer 1"><rect class="cls-1" width="40" height="40" rx="3"/><g id="b0f4Oe.tif"><path class="cls-2" d="M34.41,21.22a13.62,13.62,0,0,1-5.08,5.93A16.38,16.38,0,0,1,6.06,22.33a2.57,2.57,0,0,1,0-3A15.76,15.76,0,0,1,18.4,11.77c6.5-.57,11.62,2,15.32,7.33a10.71,10.71,0,0,1,.69,1.4ZM13.93,16.29c.05.19.08.35.13.49a2.75,2.75,0,0,0,2.37,2,2.68,2.68,0,0,0,2.73-1.3,2.64,2.64,0,0,0-.08-3.06.89.89,0,0,0-.67-.33,13.85,13.85,0,0,0-10.1,6.14.87.87,0,0,0,0,1.17,13.56,13.56,0,0,0,11.24,6.19,13.57,13.57,0,0,0,12.22-6.4.58.58,0,0,0,0-.75,12.9,12.9,0,0,0-3.41-3.65c-.89-.62-1.84-1.16-2.77-1.73l-.08.14a6.87,6.87,0,0,1-1.32,9.34,6.78,6.78,0,0,1-8.73-.24A6.69,6.69,0,0,1,13.93,16.29Z"/></g></g></g></svg>