<svg xmlns="http://www.w3.org/2000/svg" viewBox="0 0 56 56"><defs><style>.cls-1{fill:#fff;}.cls-2{fill:#e85f5f;}.cls-3{fill:#fddd57;}.cls-4{fill:#649dec;}.cls-5{fill:#74d47b;}.cls-6{fill:#ae5ce2;}.cls-7{fill:#ed8846;}.cls-8{fill:#825944;}.cls-9{fill:#2f2f2f;}</style></defs><g id="Layer_2" data-name="Layer 2"><g id="Layer_1-2" data-name="Layer 1"><rect class="cls-1" width="56" height="56" rx="6.72"/><g id="nZpaRN.tif"><path class="cls-2" d="M32.16,10.34A18.35,18.35,0,0,1,45.7,16c-.26,0-.4.19-.56.35L40,21.46c-.16.16-.35.31-.34.57a10.78,10.78,0,0,0-7.47-3.21Z"/><path class="cls-3" d="M51,29.21a18.22,18.22,0,0,1-5.49,13.4l-6.06-6a10.91,10.91,0,0,0,3.07-7.35Z"/><path class="cls-4" d="M32.16,48.08a18.1,18.1,0,0,1-13.4-5.51l6-6.06a10.83,10.83,0,0,0,7.39,3.1Z"/><path class="cls-5" d="M32.16,48.08V39.61a10.9,10.9,0,0,0,7.32-3l6.06,6a18,18,0,0,1-9.91,5.19A12.66,12.66,0,0,1,32.16,48.08Z"/><path class="cls-6" d="M24.77,36.51l-6,6.06a17.9,17.9,0,0,1-5.19-9.87,14.45,14.45,0,0,1-.29-3.48h8.49A10.73,10.73,0,0,0,24.77,36.51Z"/><path class="cls-7" d="M51,29.21H42.55A10.79,10.79,0,0,0,39.63,22c0-.26.18-.41.34-.57l5.17-5.16c.16-.16.3-.35.56-.35A18.46,18.46,0,0,1,51,29.21Z"/></g><g id="b0f4Oe.tif"><path class="cls-8" d="M29.26,19A11.49,11.49,0,0,1,25,24,13.81,13.81,0,0,1,5.37,20a2.16,2.16,0,0,1,0-2.52,13.3,13.3,0,0,1,10.37-6.38,13.42,13.42,0,0,1,12.92,6.18,9.93,9.93,0,0,1,.58,1.18ZM12,14.89c0,.16.07.29.11.41a2.3,2.3,0,0,0,2,1.72,2.35,2.35,0,0,0,2.23-3.67.78.78,0,0,0-.57-.28,11.71,11.71,0,0,0-8.51,5.18.73.73,0,0,0,0,1,11.41,11.41,0,0,0,9.48,5.22,11.46,11.46,0,0,0,10.3-5.4.5.5,0,0,0,0-.63,10.92,10.92,0,0,0-2.87-3.07c-.75-.52-1.56-1-2.34-1.46l-.07.12a5.78,5.78,0,0,1-1.11,7.87,5.7,5.7,0,0,1-7.35-.2A5.62,5.62,0,0,1,12,14.89Z"/><path class="cls-9" d="M29.26,19A11.49,11.49,0,0,1,25,24,13.81,13.81,0,0,1,5.37,20a2.16,2.16,0,0,1,0-2.52,13.3,13.3,0,0,1,10.37-6.38,13.42,13.42,0,0,1,12.92,6.18,9.93,9.93,0,0,1,.58,1.18Zm-13.49-6a12.13,12.13,0,0,0-8.51,5.18.73.73,0,0,0,0,1,11.41,11.41,0,0,0,9.48,5.22,11.46,11.46,0,0,0,10.3-5.4.5.5,0,0,0,0-.63,10.92,10.92,0,0,0-2.87-3.07c-.75-.52-1.56-1-2.34-1.46C21.82,13.93,20.18,12.36,15.77,13.07Z"/></g></g></g></svg>