<svg xmlns="http://www.w3.org/2000/svg" viewBox="0 0 56 56"><g data-name="Layer 2"><g data-name="Layer 1"><rect width="56" height="56" rx="6.72" style="fill:#fff"/><path d="M48.17 29.71a19 19 0 0 1-7.1 8.3 23 23 0 0 1-32.59-6.75 3.6 3.6 0 0 1 0-4.19c4.07-6.26 9.79-9.95 17.23-10.6 9.11-.79 16.27 2.76 21.46 10.27a16 16 0 0 1 1 2Zm-28.67-6.9c.07.27.12.48.19.68A3.83 3.83 0 0 0 23 26.36a3.76 3.76 0 0 0 3.83-1.82 3.7 3.7 0 0 0-.12-4.28 1.23 1.23 0 0 0-.94-.47 19.45 19.45 0 0 0-14.14 8.6 1.22 1.22 0 0 0 0 1.64c3.83 5.48 9.06 8.5 15.75 8.67 7.31.19 13-2.91 17.11-9a.8.8 0 0 0 0-1.05 18.09 18.09 0 0 0-4.76-5.1c-1.25-.87-2.59-1.62-3.88-2.42l-.12.19a9.62 9.62 0 0 1-1.85 13.08 9.49 9.49 0 0 1-12.22-.34 9.35 9.35 0 0 1-2.16-11.25Z" style="fill:#825944"/><path d="M48.17 29.71a19 19 0 0 1-7.1 8.3 23 23 0 0 1-32.59-6.75 3.6 3.6 0 0 1 0-4.19c4.07-6.26 9.79-9.95 17.23-10.6 9.11-.79 16.27 2.76 21.46 10.27a16 16 0 0 1 1 2Zm-22.4-9.92c-6 1-10.71 3.62-14.14 8.6a1.22 1.22 0 0 0 0 1.64c3.83 5.48 9.06 8.5 15.75 8.67 7.31.19 13-2.91 17.11-9a.8.8 0 0 0 0-1.05 18.09 18.09 0 0 0-4.76-5.1c-1.25-.87-2.59-1.62-3.88-2.42-.03.09-2.76-2.52-10.08-1.34Z" style="fill:#2f2f2f"/></g></g></svg>