<svg xmlns="http://www.w3.org/2000/svg" viewBox="0 0 40 40"><defs><style>.cls-1{fill:#eaeaea;}.cls-2{fill:#8c8c8c;}.cls-3{fill:#6d6d6d;}.cls-4{fill:#a8a8a8;}.cls-5{fill:#d3d3d3;}.cls-6{fill:#bcbcbc;}.cls-7{fill:#dbdbdb;}.cls-8{fill:#969696;}</style></defs><g id="Layer_2" data-name="Layer 2"><g id="Layer_1-2" data-name="Layer 1"><rect class="cls-1" width="40" height="40" rx="3"/><g id="b0f4Oe.tif"><path class="cls-2" d="M20.9,13.59a8.23,8.23,0,0,1-3.06,3.57,9.87,9.87,0,0,1-14-2.9,1.56,1.56,0,0,1,0-1.81A9.49,9.49,0,0,1,11.26,7.9a9.56,9.56,0,0,1,9.22,4.41,6.58,6.58,0,0,1,.42.84Zm-12.33-3c0,.12,0,.21.08.3a1.65,1.65,0,0,0,1.42,1.23,1.68,1.68,0,0,0,1.6-2.63.56.56,0,0,0-.41-.2A8.39,8.39,0,0,0,5.18,13a.52.52,0,0,0,0,.7A8.15,8.15,0,0,0,12,17.45a8.16,8.16,0,0,0,7.36-3.85.35.35,0,0,0,0-.45A7.55,7.55,0,0,0,17.27,11c-.54-.37-1.11-.69-1.67-1l0,.09a4.14,4.14,0,0,1-.79,5.62,4.09,4.09,0,0,1-5.26-.15A4,4,0,0,1,8.57,10.62Z"/></g><g id="nZpaRN.tif"><path class="cls-3" d="M23,7.39a13.07,13.07,0,0,1,9.67,4c-.18,0-.28.14-.4.25l-3.69,3.69c-.11.12-.25.22-.25.41A7.64,7.64,0,0,0,23,13.44Z"/><path class="cls-4" d="M36.45,20.86a13,13,0,0,1-3.92,9.58L28.2,26.12a7.78,7.78,0,0,0,2.19-5.25Z"/><path class="cls-5" d="M23,34.35a12.94,12.94,0,0,1-9.57-3.94l4.29-4.33A7.75,7.75,0,0,0,23,28.29Z"/><path class="cls-6" d="M23,34.35V28.29a7.79,7.79,0,0,0,5.23-2.17l4.33,4.32a13,13,0,0,1-7.08,3.71A9.82,9.82,0,0,1,23,34.35Z"/><path class="cls-7" d="M17.69,26.08,13.4,30.41a12.72,12.72,0,0,1-3.7-7,9.91,9.91,0,0,1-.21-2.49h6.06A7.66,7.66,0,0,0,17.69,26.08Z"/><path class="cls-8" d="M36.45,20.86H30.39a7.64,7.64,0,0,0-2.09-5.13c0-.19.14-.29.25-.41l3.69-3.69c.12-.11.22-.25.4-.25A13.18,13.18,0,0,1,36.45,20.86Z"/></g></g></g></svg>