<svg xmlns="http://www.w3.org/2000/svg" viewBox="0 0 40 40"><g data-name="Layer 2"><g data-name="Layer 1"><rect width="40" height="40" rx="3" style="fill:#eaeaea"/><path d="M20.9 13.59a8.23 8.23 0 0 1-3.06 3.57 9.87 9.87 0 0 1-14-2.9 1.56 1.56 0 0 1 0-1.81 9.49 9.49 0 0 1 7.42-4.55 9.56 9.56 0 0 1 9.22 4.41 6.58 6.58 0 0 1 .42.84Zm-12.33-3c0 .12 0 .21.08.3a1.65 1.65 0 0 0 1.42 1.23 1.68 1.68 0 0 0 1.6-2.63.56.56 0 0 0-.41-.2A8.39 8.39 0 0 0 5.18 13a.52.52 0 0 0 0 .7A8.15 8.15 0 0 0 12 17.45a8.16 8.16 0 0 0 7.36-3.85.35.35 0 0 0 0-.45A7.55 7.55 0 0 0 17.27 11c-.54-.37-1.11-.69-1.67-1v.09a4.14 4.14 0 0 1-.79 5.62 4.09 4.09 0 0 1-5.26-.15 4 4 0 0 1-.98-4.94Z" style="fill:#8c8c8c"/><path d="M23 7.39a13.07 13.07 0 0 1 9.67 4c-.18 0-.28.14-.4.25l-3.69 3.69c-.11.12-.25.22-.25.41a7.64 7.64 0 0 0-5.33-2.3Z" style="fill:#6d6d6d"/><path d="M36.45 20.86a13 13 0 0 1-3.92 9.58l-4.33-4.32a7.78 7.78 0 0 0 2.19-5.25Z" style="fill:#a8a8a8"/><path d="M23 34.35a12.94 12.94 0 0 1-9.57-3.94l4.29-4.33A7.75 7.75 0 0 0 23 28.29Z" style="fill:#d3d3d3"/><path d="M23 34.35v-6.06a7.79 7.79 0 0 0 5.23-2.17l4.33 4.32a13 13 0 0 1-7.08 3.71 9.82 9.82 0 0 1-2.48.2Z" style="fill:#bcbcbc"/><path d="m17.69 26.08-4.29 4.33a12.72 12.72 0 0 1-3.7-7 9.91 9.91 0 0 1-.21-2.49h6.06a7.66 7.66 0 0 0 2.14 5.16Z" style="fill:#dbdbdb"/><path d="M36.45 20.86h-6.06a7.64 7.64 0 0 0-2.09-5.13c0-.19.14-.29.25-.41l3.69-3.69c.12-.11.22-.25.4-.25a13.18 13.18 0 0 1 3.81 9.48Z" style="fill:#969696"/></g></g></svg>