<svg xmlns="http://www.w3.org/2000/svg" viewBox="0 0 40 40"><g data-name="Layer 2"><g data-name="Layer 1"><rect width="40" height="40" rx="3" style="fill:#eaeaea"/><path d="M4.71 25.51c0-.28.07-.56.12-.83a7.07 7.07 0 0 1 2.77-4.5 7.09 7.09 0 0 1 3.49-1.43l.69-.05-.1-1.29a2.75 2.75 0 0 1 .41-5.49 2.75 2.75 0 0 1 .22 5.48l-.11 1.3h.52a7.28 7.28 0 1 1-7.78 9c-.1-.4-.14-.8-.21-1.21a.43.43 0 0 0 0-.11ZM12 19.65a3.9 3.9 0 1 0 3.89 3.89A3.9 3.9 0 0 0 12 19.65Zm15.2-6.13-.1-1.29a2.76 2.76 0 0 1-1.89-1.09A2.7 2.7 0 0 1 24.7 9a2.75 2.75 0 1 1 3 3.2l-.1 1.29a7.23 7.23 0 0 1 5.69 3 6.94 6.94 0 0 1 1.34 5 7.29 7.29 0 0 1-14.52-.31A7.06 7.06 0 0 1 22 15.9a7.23 7.23 0 0 1 5.2-2.38Zm-3.67 4.85a3.89 3.89 0 1 0 3.9-3.89 3.89 3.89 0 0 0-3.9 3.89Z" style="fill:#8c8c8c"/></g></g></svg>