<svg xmlns="http://www.w3.org/2000/svg" viewBox="0 0 56 56"><defs><style>.cls-1{fill:#fff;}.cls-2{fill:#fddd57;}.cls-3{fill:#bff;}</style></defs><g id="Layer_2" data-name="Layer 2"><g id="Layer_1-2" data-name="Layer 1"><rect class="cls-1" width="56" height="56" rx="6.72"/><g id="chB1w6.tif"><path class="cls-2" d="M7,35.71c.06-.39.1-.78.17-1.16a10.18,10.18,0,0,1,8.77-8.29c.31,0,.62-.06,1-.09l-.14-1.8A3.86,3.86,0,1,1,21,20.17a3.83,3.83,0,0,1-3.4,4.19l-.14,1.81.71.06A10.19,10.19,0,1,1,7.32,38.89c-.14-.55-.19-1.12-.28-1.69,0-.05,0-.11,0-.16Zm10.19-8.2A5.45,5.45,0,1,0,22.65,33,5.44,5.44,0,0,0,17.19,27.51Z"/><path class="cls-2" d="M38.49,18.93l-.15-1.81a3.86,3.86,0,0,1-2.64-1.53A3.8,3.8,0,0,1,35,12.64a3.86,3.86,0,1,1,4.25,4.48l-.14,1.81a10.09,10.09,0,0,1,8,4.24,9.67,9.67,0,0,1,1.88,7,10.2,10.2,0,0,1-20.32-.44,9.89,9.89,0,0,1,2.65-7.5A10.12,10.12,0,0,1,38.49,18.93Zm-5.15,6.79a5.45,5.45,0,1,0,5.47-5.44A5.44,5.44,0,0,0,33.34,25.72Z"/></g><circle class="cls-3" cx="17.21" cy="20.64" r="3.96"/><circle class="cls-3" cx="38.8" cy="13.4" r="3.96"/></g></g></svg>