<svg xmlns="http://www.w3.org/2000/svg" viewBox="0 0 56 56"><g data-name="Layer 2"><g data-name="Layer 1"><rect width="56" height="56" rx="6.72" style="fill:#fff"/><path d="M11.07 26.23h1a42.38 42.38 0 0 1 12.52 1.56 13.94 13.94 0 0 0 3.3.58 13.5 13.5 0 0 0 3.2-.5 50.72 50.72 0 0 1 7.21-1.4c2-.16 4-.16 6.06-.23h.57a2 2 0 0 0-.17-.28c-2.19-2.47-4.37-4.95-6.56-7.41a7.57 7.57 0 0 0-.89-.81 1 1 0 0 0-1.36-.07 3.76 3.76 0 0 1-2.33.76 2.29 2.29 0 0 1-.73-.17.55.55 0 0 1-.11-1c.48-.34 1-.63 1.51-.93s.87-.47 1.31-.69a1.56 1.56 0 0 1 2 .33l9.67 10.28a1.27 1.27 0 0 0 .39.26 2.17 2.17 0 0 1 .72 3.49A4.85 4.85 0 0 0 47 32.8c-.25 1.14-.48 2.29-.82 3.4a5.14 5.14 0 0 1-3.86 3.8 14.93 14.93 0 0 1-5.36.55 6.33 6.33 0 0 1-5-3.13c-.74-1.25-1.34-2.59-2-3.89-.24-.47-.44-1-.71-1.4-.75-1.21-1.75-1.21-2.49 0a15 15 0 0 0-.82 1.66 21.57 21.57 0 0 1-2.12 4 6.61 6.61 0 0 1-5.32 2.8 13.89 13.89 0 0 1-5.67-.89 4.52 4.52 0 0 1-2.82-3c-.45-1.36-.73-2.77-1.06-4.16a4.3 4.3 0 0 0-1.29-2.42 2.2 2.2 0 0 1 .7-3.58 1.11 1.11 0 0 0 .42-.28q4.82-5.1 9.62-10.22a1.56 1.56 0 0 1 2.07-.35c.88.47 1.74 1 2.6 1.45.27.16.52.36.44.73s-.38.47-.68.53a3.17 3.17 0 0 1-2.31-.43c-1.2-.7-1.34-.74-2.31.27-1.75 1.83-3.44 3.72-5.14 5.6-.61.67-1.17 1.4-1.75 2.1-.08.06-.15.15-.25.29Zm3.8 1.48a8 8 0 0 0-3.21.45 1.75 1.75 0 0 0-1.14 1.35 11.63 11.63 0 0 0 .83 6.91 3.53 3.53 0 0 0 2 1.91 11.67 11.67 0 0 0 6.16.66 4.3 4.3 0 0 0 3-1.75 11.56 11.56 0 0 0 2-4.68 2.82 2.82 0 0 0-1.85-3.42 6.32 6.32 0 0 0-.86-.32 32.28 32.28 0 0 0-6.93-1.11Zm26.49 0c-.94.08-1.64.12-2.33.2a20.42 20.42 0 0 0-2.1.32 30.7 30.7 0 0 0-3.68 1 2.65 2.65 0 0 0-1.8 3.19 10.75 10.75 0 0 0 2.25 5.13 3.52 3.52 0 0 0 1.79 1.23 11.14 11.14 0 0 0 6.94-.33 3.84 3.84 0 0 0 2.38-2.34 12.36 12.36 0 0 0 .8-5.8 2.22 2.22 0 0 0-2.22-2.39c-.75-.17-1.51-.2-2.03-.24Z" style="fill:#2f2f2f"/><path d="M14.87 27.71a32.28 32.28 0 0 1 7 1.11 6.32 6.32 0 0 1 .86.32 2.82 2.82 0 0 1 1.85 3.42 11.56 11.56 0 0 1-2 4.68 4.3 4.3 0 0 1-3 1.75 11.67 11.67 0 0 1-6.16-.66 3.53 3.53 0 0 1-2-1.91 11.63 11.63 0 0 1-.83-6.91 1.75 1.75 0 0 1 1.14-1.35 8 8 0 0 1 3.14-.45Zm26.49-.03c.52 0 1.28.07 2 .2a2.22 2.22 0 0 1 2.22 2.39 12.36 12.36 0 0 1-.8 5.8 3.84 3.84 0 0 1-2.38 2.34 11.14 11.14 0 0 1-6.94.33 3.52 3.52 0 0 1-1.79-1.23 10.75 10.75 0 0 1-2.25-5.13 2.65 2.65 0 0 1 1.8-3.19 30.7 30.7 0 0 1 3.68-1 20.42 20.42 0 0 1 2.1-.32c.72-.07 1.42-.11 2.36-.19Z" style="fill:#f8ffff"/></g></g></svg>