<svg xmlns="http://www.w3.org/2000/svg" viewBox="0 0 40 40"><defs><style>.cls-1{fill:#eaeaea;}.cls-2{fill:#8c8c8c;}</style></defs><g id="Layer_2" data-name="Layer 2"><g id="Layer_1-2" data-name="Layer 1"><rect class="cls-1" width="40" height="40" rx="3"/><g id="RzVapt"><path class="cls-2" d="M7.91,18.74H8.6a30.68,30.68,0,0,1,8.94,1.12,10.63,10.63,0,0,0,2.36.42,10,10,0,0,0,2.29-.36,34.7,34.7,0,0,1,5.15-1c1.43-.12,2.88-.12,4.32-.17h.41c0-.08-.08-.15-.12-.2-1.56-1.76-3.12-3.53-4.69-5.29a5.77,5.77,0,0,0-.63-.58.69.69,0,0,0-1-.05,2.64,2.64,0,0,1-1.66.54,1.37,1.37,0,0,1-.53-.12.39.39,0,0,1-.08-.72c.35-.24.71-.45,1.08-.66s.62-.34.94-.5a1.12,1.12,0,0,1,1.41.24l6.91,7.34a.74.74,0,0,0,.27.19,1.55,1.55,0,0,1,.56,2.52,3.5,3.5,0,0,0-1,2c-.17.81-.34,1.63-.58,2.42a3.67,3.67,0,0,1-2.76,2.69,10.77,10.77,0,0,1-3.83.4,4.56,4.56,0,0,1-3.59-2.24c-.53-.9-.95-1.85-1.42-2.78-.17-.33-.31-.68-.51-1-.53-.86-1.24-.86-1.77,0a10.82,10.82,0,0,0-.59,1.18A15.32,15.32,0,0,1,17,27a4.71,4.71,0,0,1-3.8,2,10,10,0,0,1-4.06-.63,3.27,3.27,0,0,1-2-2.15c-.32-1-.52-2-.75-3a3.08,3.08,0,0,0-.93-1.73A1.57,1.57,0,0,1,6,18.94a1,1,0,0,0,.3-.2l6.87-7.3a1.09,1.09,0,0,1,1.47-.25c.63.33,1.24.68,1.86,1,.2.11.38.26.32.52s-.27.34-.49.38a2.23,2.23,0,0,1-1.65-.31c-.86-.49-1-.53-1.65.2-1.25,1.3-2.46,2.65-3.67,4-.44.48-.84,1-1.25,1.5Zm2.71,1.05a5.79,5.79,0,0,0-2.29.32,1.29,1.29,0,0,0-.82,1A8.27,8.27,0,0,0,8.11,26a2.49,2.49,0,0,0,1.44,1.37,8.32,8.32,0,0,0,4.39.47,3,3,0,0,0,2.14-1.25,8.08,8.08,0,0,0,1.44-3.35,2,2,0,0,0-1.32-2.44,6.37,6.37,0,0,0-.61-.23A24.19,24.19,0,0,0,10.62,19.79Zm18.92,0c-.67.06-1.17.09-1.66.15a12.33,12.33,0,0,0-1.5.23,19.58,19.58,0,0,0-2.63.7,1.9,1.9,0,0,0-1.29,2.28,7.76,7.76,0,0,0,1.61,3.66,2.44,2.44,0,0,0,1.28.88,7.94,7.94,0,0,0,5-.23A2.78,2.78,0,0,0,32,25.76a8.86,8.86,0,0,0,.57-4.14A1.59,1.59,0,0,0,31,19.91C30.46,19.82,29.91,19.8,29.54,19.77Z"/><path class="cls-1" d="M10.62,19.79a24.19,24.19,0,0,1,5,.79,6.37,6.37,0,0,1,.61.23,2,2,0,0,1,1.32,2.44,8.08,8.08,0,0,1-1.44,3.35,3,3,0,0,1-2.14,1.25,8.32,8.32,0,0,1-4.39-.47A2.49,2.49,0,0,1,8.11,26a8.27,8.27,0,0,1-.6-4.93,1.29,1.29,0,0,1,.82-1A5.79,5.79,0,0,1,10.62,19.79Z"/><path class="cls-1" d="M29.54,19.77c.37,0,.92.05,1.45.14a1.59,1.59,0,0,1,1.59,1.71A8.86,8.86,0,0,1,32,25.76a2.78,2.78,0,0,1-1.7,1.68,7.94,7.94,0,0,1-5,.23,2.44,2.44,0,0,1-1.28-.88,7.76,7.76,0,0,1-1.61-3.66,1.9,1.9,0,0,1,1.29-2.28,19.58,19.58,0,0,1,2.63-.7,12.33,12.33,0,0,1,1.5-.23C28.37,19.86,28.87,19.83,29.54,19.77Z"/></g></g></g></svg>