<svg xmlns="http://www.w3.org/2000/svg" viewBox="0 0 56 56"><defs><style>.cls-2{fill:#2f2f2f}</style></defs><g id="Layer_2" data-name="Layer 2"><g id="Layer_1-2" data-name="Layer 1"><rect width="56" height="56" rx="6.72" style="fill:#fff"/><g id="NXjfmX"><path class="cls-2" d="m18.15 22.93-.46.34c-.44.33-.72.25-.9-.29s-.41-1.27-.63-1.91a.49.49 0 0 1 .32-.7 1.51 1.51 0 0 0 .93-1.25.62.62 0 0 0-.35-.71c-.25-.11-.35.15-.5.3a.71.71 0 0 1-1 0 4 4 0 0 1-1.14-1.47 3 3 0 0 0-2.6-1.56H9.66c-1.13 0-1.12 0-1.12 1.12a27 27 0 0 0 .69 6.46c0 .14.07.28.12.41A1.8 1.8 0 0 0 11.67 25a8.21 8.21 0 0 0 3.39-1.72.89.89 0 0 1 .35-.23.51.51 0 0 1 .57.24.36.36 0 0 1-.12.53c-.37.29-.74.58-1.13.83a.36.36 0 0 0-.17.49 3.55 3.55 0 0 1 .13 2c-.08.3-.25.48-.57.4a.44.44 0 0 1-.34-.64 2.42 2.42 0 0 0 .05-.47 1.33 1.33 0 0 0-.18-.94c-.27-.3-.56.09-.84.17a7.26 7.26 0 0 1-1.73.34 2.36 2.36 0 0 1-2.41-1.52 11.08 11.08 0 0 1-.85-3.24 30.08 30.08 0 0 1-.21-5.53.62.62 0 0 0-.13-.52 1.68 1.68 0 0 1-.36-1.79 6 6 0 0 1 4.08-4 9.13 9.13 0 0 1 7.39.53c.22.12.36.13.53-.06a9.28 9.28 0 0 1 .71-.69c.1-.09.25-.23.34-.21.47.11.53-.25.7-.52a3.93 3.93 0 0 1 3-1.77 7.67 7.67 0 0 1 4.23.52 5 5 0 0 1 2.79 6.25c-.5 1.45-1.29 2.77-1.89 4.17a6.17 6.17 0 0 0-.71 2.55 4.16 4.16 0 0 0 .09.79c.09.44-.19.68-.63.58a4.05 4.05 0 0 1-3-4.41c.15-1.1.56-2.15.64-3.26a4.55 4.55 0 0 0-.06-1.17 1.89 1.89 0 0 0-2.6-1.47c-.2.07-.24.11-.14.31a.46.46 0 0 1-.19.68c-.76.43-.9.93-.66 1.84a7.48 7.48 0 0 1-1.83 6.93 4.38 4.38 0 0 0-.79 3.66 3.57 3.57 0 0 0 .52 1.54.42.42 0 0 1-.11.65.46.46 0 0 1-.71-.19 5.18 5.18 0 0 1-.7-2.4c.01-.44.03-.82.03-1.32Zm7.07-15.51a4.69 4.69 0 0 0-2.37.5 2.72 2.72 0 0 0-1.42 1.67c-.12.37.12.54.3.77s.34 0 .51 0a3.7 3.7 0 0 0 .4-.13 2.68 2.68 0 0 1 3.57 1.93 5.87 5.87 0 0 1 .06 2.47c-.16.92-.48 1.8-.56 2.74A2.86 2.86 0 0 0 27 20.11c.11.08.29.24.3-.08a9.79 9.79 0 0 1 1.28-3.93 24.82 24.82 0 0 0 1.33-3 4.09 4.09 0 0 0-2.38-5.24 5.51 5.51 0 0 0-2.31-.44Zm-3.69 4.2-.08-.12c-.36-.44-.72-.89-1.1-1.33-.22-.26-.3.06-.42.15s-.35.18-.1.38a6.2 6.2 0 0 1 1.06 1.17c.05.08.1.24.24.13s.32-.2.4-.38Z"/><path class="cls-2" d="M25.22 7.42a5.51 5.51 0 0 1 2.35.46A4.09 4.09 0 0 1 30 13.12a24.82 24.82 0 0 1-1.33 3A9.79 9.79 0 0 0 27.34 20c0 .32-.19.16-.3.08a2.86 2.86 0 0 1-1.33-2.77c.08-.94.4-1.82.56-2.74a5.87 5.87 0 0 0-.06-2.47 2.68 2.68 0 0 0-3.57-1.93 3.7 3.7 0 0 1-.4.13c-.17 0-.34.24-.51 0s-.42-.4-.3-.77a2.72 2.72 0 0 1 1.42-1.67 4.69 4.69 0 0 1 2.37-.44Z"/></g><g id="nZpaRN.tif"><path d="M32.17 10.34A18.31 18.31 0 0 1 45.71 16c-.26 0-.4.18-.56.34L40 21.46c-.16.16-.35.3-.34.57a10.73 10.73 0 0 0-7.47-3.21Z" style="fill:#e85f5f"/><path d="M51 29.21a18.24 18.24 0 0 1-5.49 13.4l-6.06-6a10.93 10.93 0 0 0 3.07-7.35Z" style="fill:#fddd57"/><path d="M32.17 48.08a18.1 18.1 0 0 1-13.4-5.51l6-6.07a10.79 10.79 0 0 0 7.39 3.1Z" style="fill:#649dec"/><path d="M32.17 48.08V39.6a10.94 10.94 0 0 0 7.32-3l6.06 6a18 18 0 0 1-9.91 5.19 13.49 13.49 0 0 1-3.47.29Z" style="fill:#74d47b"/><path d="m24.78 36.5-6 6.07a17.93 17.93 0 0 1-5.19-9.87 14.53 14.53 0 0 1-.29-3.48h8.49a10.69 10.69 0 0 0 2.99 7.28Z" style="fill:#ae5ce2"/><path d="M51 29.21h-8.44A10.75 10.75 0 0 0 39.64 22c0-.27.18-.41.34-.57l5.17-5.17c.16-.16.3-.35.56-.34A18.45 18.45 0 0 1 51 29.21Z" style="fill:#ed8846"/></g></g></g></svg>