<svg xmlns="http://www.w3.org/2000/svg" viewBox="0 0 40 40"><defs><style>.cls-1{fill:#eaeaea}.cls-2{fill:#8c8c8c}.cls-3{fill:#6d6d6d}.cls-4{fill:#a8a8a8}.cls-5{fill:#d3d3d3}.cls-6{fill:#bcbcbc}.cls-7{fill:#dbdbdb}.cls-8{fill:#969696}</style></defs><g id="Layer_2" data-name="Layer 2"><g id="Layer_1-2" data-name="Layer 1"><rect class="cls-1" width="40" height="40" rx="3"/><g id="NXjfmX"><path class="cls-2" d="m13 16.38-.32.24c-.32.23-.52.18-.65-.2s-.29-.92-.45-1.37a.35.35 0 0 1 .23-.5 1.1 1.1 0 0 0 .67-.9.44.44 0 0 0-.25-.5c-.18-.08-.25.11-.36.21a.51.51 0 0 1-.72 0 2.8 2.8 0 0 1-.82-1 2.14 2.14 0 0 0-1.86-1.11H6.93c-.8 0-.8 0-.79.8a18.43 18.43 0 0 0 .49 4.62c0 .1 0 .19.08.29a1.3 1.3 0 0 0 1.67.9 6 6 0 0 0 2.42-1.23c.08-.06.14-.14.25-.16a.34.34 0 0 1 .4.17.26.26 0 0 1-.08.38c-.27.2-.53.41-.81.59a.25.25 0 0 0-.12.35 2.54 2.54 0 0 1 .09 1.42c-.06.22-.18.34-.4.29a.33.33 0 0 1-.25-.46 1.86 1.86 0 0 0 0-.34 1 1 0 0 0-.13-.67c-.19-.21-.4.07-.6.12a5.25 5.25 0 0 1-1.24.25 1.7 1.7 0 0 1-1.72-1.09 8.36 8.36 0 0 1-.61-2.32 21.72 21.72 0 0 1-.14-4 .47.47 0 0 0-.1-.37 1.18 1.18 0 0 1-.25-1.27A4.29 4.29 0 0 1 8 6.66a6.5 6.5 0 0 1 5.28.39.26.26 0 0 0 .37 0c.16-.17.34-.33.51-.49s.18-.17.25-.15c.34.08.38-.18.49-.38a2.86 2.86 0 0 1 2.15-1.26 5.39 5.39 0 0 1 3 .37 3.55 3.55 0 0 1 2 4.46c-.35 1-.92 2-1.35 3a4.42 4.42 0 0 0-.5 1.82 3.55 3.55 0 0 0 .06.56c.06.31-.14.49-.45.41a2.89 2.89 0 0 1-2.12-3.15c.11-.78.4-1.53.46-2.32a2.93 2.93 0 0 0-.04-.92 1.35 1.35 0 0 0-1.85-1c-.14 0-.18.08-.1.22a.33.33 0 0 1-.14.49c-.54.31-.64.66-.47 1.32A5.36 5.36 0 0 1 14.24 15a3.11 3.11 0 0 0-.56 2.61 2.44 2.44 0 0 0 .37 1.1.3.3 0 0 1-.08.46c-.21.15-.38.06-.5-.13a3.61 3.61 0 0 1-.5-1.72c.03-.32.03-.58.03-.94ZM18 5.3a3.37 3.37 0 0 0-1.69.36 2 2 0 0 0-1 1.19c-.08.26.09.39.22.55s.24 0 .36 0 .19-.07.29-.09a1.91 1.91 0 0 1 2.55 1.37 4.23 4.23 0 0 1 0 1.77c-.11.65-.34 1.29-.4 2a2.06 2.06 0 0 0 .95 2c.08.06.21.17.22 0a7 7 0 0 1 .91-2.81 16.87 16.87 0 0 0 .95-2.13 2.9 2.9 0 0 0-1.7-3.74A3.91 3.91 0 0 0 18 5.3Zm-2.63 3-.06-.09c-.26-.31-.51-.63-.78-.94s-.22 0-.3.1-.25.13-.08.27a4.31 4.31 0 0 1 .76.84c0 .06.07.17.17.09s.24-.14.3-.27Z"/><path class="cls-2" d="M18 5.3a3.91 3.91 0 0 1 1.68.33 2.9 2.9 0 0 1 1.7 3.74 16.87 16.87 0 0 1-.95 2.13 7 7 0 0 0-.91 2.81c0 .22-.14.11-.22 0a2.06 2.06 0 0 1-.95-2c.06-.67.29-1.31.4-2a4.23 4.23 0 0 0 0-1.77 1.91 1.91 0 0 0-2.55-1.37c-.1 0-.19.07-.29.09s-.24.17-.36 0-.3-.29-.22-.55a2 2 0 0 1 1-1.19A3.37 3.37 0 0 1 18 5.3Z"/></g><g id="nZpaRN.tif"><path class="cls-3" d="M23 7.39a13.07 13.07 0 0 1 9.67 4c-.18 0-.28.14-.4.25l-3.69 3.69c-.11.12-.25.22-.25.41a7.64 7.64 0 0 0-5.33-2.3Z"/><path class="cls-4" d="M36.45 20.86a13 13 0 0 1-3.92 9.58l-4.33-4.32a7.78 7.78 0 0 0 2.19-5.25Z"/><path class="cls-5" d="M23 34.35a12.94 12.94 0 0 1-9.57-3.94l4.29-4.33A7.75 7.75 0 0 0 23 28.29Z"/><path class="cls-6" d="M23 34.35v-6.06a7.79 7.79 0 0 0 5.23-2.17l4.33 4.32a13 13 0 0 1-7.08 3.71 9.82 9.82 0 0 1-2.48.2Z"/><path class="cls-7" d="m17.69 26.08-4.29 4.33a12.72 12.72 0 0 1-3.7-7 9.91 9.91 0 0 1-.21-2.49h6.06a7.66 7.66 0 0 0 2.14 5.16Z"/><path class="cls-8" d="M36.45 20.86h-6.06a7.64 7.64 0 0 0-2.09-5.13c0-.19.14-.29.25-.41l3.69-3.69c.12-.11.22-.25.4-.25a13.18 13.18 0 0 1 3.81 9.48Z"/></g><rect class="cls-1" width="40" height="40" rx="3"/><g id="NXjfmX-2" data-name="NXjfmX"><path class="cls-2" d="m13 16.38-.32.24c-.32.23-.52.18-.65-.2s-.29-.92-.45-1.37a.35.35 0 0 1 .23-.5 1.1 1.1 0 0 0 .67-.9.44.44 0 0 0-.25-.5c-.18-.08-.25.11-.36.21a.51.51 0 0 1-.72 0 2.8 2.8 0 0 1-.82-1 2.14 2.14 0 0 0-1.86-1.11H6.93c-.8 0-.8 0-.79.8a18.43 18.43 0 0 0 .49 4.62c0 .1 0 .19.08.29a1.3 1.3 0 0 0 1.67.9 6 6 0 0 0 2.42-1.23c.08-.06.14-.14.25-.16a.34.34 0 0 1 .4.17.26.26 0 0 1-.08.38c-.27.2-.53.41-.81.59a.25.25 0 0 0-.12.35 2.54 2.54 0 0 1 .09 1.42c-.06.22-.18.34-.4.29a.33.33 0 0 1-.25-.46 1.86 1.86 0 0 0 0-.34 1 1 0 0 0-.13-.67c-.19-.21-.4.07-.6.12a5.25 5.25 0 0 1-1.24.25 1.7 1.7 0 0 1-1.72-1.09 8.36 8.36 0 0 1-.61-2.32 21.72 21.72 0 0 1-.14-4 .47.47 0 0 0-.1-.37 1.18 1.18 0 0 1-.25-1.27A4.29 4.29 0 0 1 8 6.66a6.5 6.5 0 0 1 5.28.39.26.26 0 0 0 .37 0c.16-.17.34-.33.51-.49s.18-.17.25-.15c.34.08.38-.18.49-.38a2.86 2.86 0 0 1 2.15-1.26 5.39 5.39 0 0 1 3 .37 3.55 3.55 0 0 1 2 4.46c-.35 1-.92 2-1.35 3a4.42 4.42 0 0 0-.5 1.82 3.55 3.55 0 0 0 .06.56c.06.31-.14.49-.45.41a2.89 2.89 0 0 1-2.12-3.15c.11-.78.4-1.53.46-2.32a2.93 2.93 0 0 0-.04-.92 1.35 1.35 0 0 0-1.85-1c-.14 0-.18.08-.1.22a.33.33 0 0 1-.14.49c-.54.31-.64.66-.47 1.32A5.36 5.36 0 0 1 14.24 15a3.11 3.11 0 0 0-.56 2.61 2.44 2.44 0 0 0 .37 1.1.3.3 0 0 1-.08.46c-.21.15-.38.06-.5-.13a3.61 3.61 0 0 1-.5-1.72c.03-.32.03-.58.03-.94ZM18 5.3a3.37 3.37 0 0 0-1.69.36 2 2 0 0 0-1 1.19c-.08.26.09.39.22.55s.24 0 .36 0 .19-.07.29-.09a1.91 1.91 0 0 1 2.55 1.37 4.23 4.23 0 0 1 0 1.77c-.11.65-.34 1.29-.4 2a2.06 2.06 0 0 0 .95 2c.08.06.21.17.22 0a7 7 0 0 1 .91-2.81 16.87 16.87 0 0 0 .95-2.13 2.9 2.9 0 0 0-1.7-3.74A3.91 3.91 0 0 0 18 5.3Zm-2.63 3-.06-.09c-.26-.31-.51-.63-.78-.94s-.22 0-.3.1-.25.13-.08.27a4.31 4.31 0 0 1 .76.84c0 .06.07.17.17.09s.24-.14.3-.27Z"/><path class="cls-2" d="M18 5.3a3.91 3.91 0 0 1 1.68.33 2.9 2.9 0 0 1 1.7 3.74 16.87 16.87 0 0 1-.95 2.13 7 7 0 0 0-.91 2.81c0 .22-.14.11-.22 0a2.06 2.06 0 0 1-.95-2c.06-.67.29-1.31.4-2a4.23 4.23 0 0 0 0-1.77 1.91 1.91 0 0 0-2.55-1.37c-.1 0-.19.07-.29.09s-.24.17-.36 0-.3-.29-.22-.55a2 2 0 0 1 1-1.19A3.37 3.37 0 0 1 18 5.3Z"/></g><g id="nZpaRN.tif-2" data-name="nZpaRN.tif"><path class="cls-3" d="M23 7.39a13.07 13.07 0 0 1 9.67 4c-.18 0-.28.14-.4.25l-3.69 3.69c-.11.12-.25.22-.25.41a7.64 7.64 0 0 0-5.33-2.3Z"/><path class="cls-4" d="M36.45 20.86a13 13 0 0 1-3.92 9.58l-4.33-4.32a7.78 7.78 0 0 0 2.19-5.25Z"/><path class="cls-5" d="M23 34.35a12.94 12.94 0 0 1-9.57-3.94l4.29-4.33A7.75 7.75 0 0 0 23 28.29Z"/><path class="cls-6" d="M23 34.35v-6.06a7.79 7.79 0 0 0 5.23-2.17l4.33 4.32a13 13 0 0 1-7.08 3.71 9.82 9.82 0 0 1-2.48.2Z"/><path class="cls-7" d="m17.69 26.08-4.29 4.33a12.72 12.72 0 0 1-3.7-7 9.91 9.91 0 0 1-.21-2.49h6.06a7.66 7.66 0 0 0 2.14 5.16Z"/><path class="cls-8" d="M36.45 20.86h-6.06a7.64 7.64 0 0 0-2.09-5.13c0-.19.14-.29.25-.41l3.69-3.69c.12-.11.22-.25.4-.25a13.18 13.18 0 0 1 3.81 9.48Z"/></g></g></g></svg>