<svg xmlns="http://www.w3.org/2000/svg" viewBox="0 0 56 56"><defs><style>.cls-2{fill:#d36253}</style></defs><g id="Layer_2" data-name="Layer 2"><g id="Layer_1-2" data-name="Layer 1"><rect width="56" height="56" rx="6.72" style="fill:#fff"/><g id="wMXbAd"><path class="cls-2" d="M8.35 26.91c4.77.35 9.56.58 14.31 1.12 1.51.17 2.92 1.17 4.41 1.71.52.19 1.34.43 1.67.18a12.83 12.83 0 0 1 7.51-2.38c3.86-.21 7.74-.06 11.67-.06-.27.28-.64.73-1.07 1.11-4.19 3.71-8.6 7.13-14 8.86a15.26 15.26 0 0 1-10.67-.38 45.72 45.72 0 0 1-13.54-9.15 5.79 5.79 0 0 1-.43-.55Z"/><path class="cls-2" d="M49 25c-1.29.08-2.72.16-4.15.26-4 .27-8 .41-12 .89-1.67.2-3.25 1.6-4.87 1.61s-3.11-1.4-4.73-1.6c-4-.48-8-.63-12-.9A32.42 32.42 0 0 1 7 24.81c2.47 0 4.22-1.54 6.15-2.69A63.37 63.37 0 0 1 20 18.34c2.63-1.17 5.12-.47 7.27 1.42.25.23.51.43.81.69a4.75 4.75 0 0 0 .72-.5 6.74 6.74 0 0 1 8.28-1.32c2.51 1.22 4.8 2.89 7.26 4.25C45.8 23.7 47.4 24.3 49 25Z"/></g></g></g></svg>