<svg xmlns="http://www.w3.org/2000/svg" viewBox="0 0 40 40"><defs><style>.cls-2{fill:#8c8c8c}</style></defs><g id="Layer_2" data-name="Layer 2"><g id="Layer_1-2" data-name="Layer 1"><rect width="40" height="40" rx="3" style="fill:#eaeaea"/><g id="wMXbAd"><path class="cls-2" d="M6 19.22c3.41.25 6.83.42 10.23.8a15.5 15.5 0 0 1 3.15 1.22c.37.14 1 .31 1.19.13a9.17 9.17 0 0 1 5.36-1.7c2.76-.15 5.53 0 8.34 0a10.86 10.86 0 0 1-.77.79c-3 2.65-6.14 5.1-10 6.33a11 11 0 0 1-7.63-.27 32.84 32.84 0 0 1-9.66-6.54 2.88 2.88 0 0 1-.3-.39Z"/><path class="cls-2" d="m35 17.88-3 .18c-2.86.2-5.73.3-8.58.64-1.19.15-2.31 1.14-3.47 1.15s-2.22-1-3.38-1.14c-2.84-.35-5.72-.45-8.58-.65a22.52 22.52 0 0 1-3-.34c1.76 0 3-1.1 4.39-1.92a46.59 46.59 0 0 1 4.89-2.7 4.62 4.62 0 0 1 5.19 1c.18.16.37.3.58.49a3.64 3.64 0 0 0 .52-.36 4.83 4.83 0 0 1 5.91-.95c1.79.88 3.43 2.07 5.18 3 1.07.65 2.21 1.08 3.35 1.6Z"/></g></g></g></svg>