<svg xmlns="http://www.w3.org/2000/svg" viewBox="0 0 56 56"><defs><style>.cls-1{fill:#fff;}.cls-2{fill:#2f2f2f;}</style></defs><g id="Layer_2" data-name="Layer 2"><g id="Layer_1-2" data-name="Layer 1"><rect class="cls-1" width="56" height="56" rx="6.72"/><g id="FthnHB.tif"><path class="cls-2" d="M35.76,40.52a4.37,4.37,0,0,0,1.53-7.07,5.12,5.12,0,0,0-4.44-1.77c-.9.08-1.8,0-2.7,0-.16,0-.31-.16-.47-.25.09-.15.15-.36.29-.45,2.19-1.42,4.52-2.16,7.11-1.27A7.15,7.15,0,0,1,42,34.92a8.22,8.22,0,0,1-3.31,8.44,8.13,8.13,0,0,1-4.12,1.37,19.25,19.25,0,0,1-5.46-.35,6.11,6.11,0,0,0-3,.14,8.15,8.15,0,0,1-3.44.21A15.43,15.43,0,0,1,18,43.63a6.87,6.87,0,0,1-4.14-5.83,10.36,10.36,0,0,1,1.67-7.08,1.94,1.94,0,0,1,.15-.24,48.42,48.42,0,0,0,5.46-10.64c1-2.5,2-5,3.06-7.51A1.75,1.75,0,0,1,26,11.19a1.73,1.73,0,0,1,1.55,1.52,1.68,1.68,0,0,1-.11.86c-1.92,4.61-3.82,9.22-5.82,13.79a37.16,37.16,0,0,1-2.21,3.8c-.54.91-1.13,1.8-1.6,2.75a6.24,6.24,0,0,0-.27,4.42,3,3,0,0,0,1.75,2.05,11.66,11.66,0,0,0,4.92.9,1.17,1.17,0,0,0,1.19-1.06,3,3,0,0,1,1.94-2.52,6.85,6.85,0,0,1,3.86-.59,16.16,16.16,0,0,1,2.38.57,2.68,2.68,0,0,1,.78.42A2.73,2.73,0,0,1,35.76,40.52Z"/></g></g></g></svg>