<svg xmlns="http://www.w3.org/2000/svg" viewBox="0 0 40 40"><g data-name="Layer 2"><g data-name="Layer 1"><rect width="40" height="40" rx="3" style="fill:#eaeaea"/><path d="M25.54 28.94a3.12 3.12 0 0 0 1.09-5.05 3.63 3.63 0 0 0-3.17-1.26c-.64.05-1.28 0-1.93 0-.11 0-.22-.12-.33-.18.07-.11.11-.26.2-.32a5.65 5.65 0 0 1 5.08-.91A5.11 5.11 0 0 1 30 24.94a5.73 5.73 0 0 1-5.31 7 14.12 14.12 0 0 1-3.89-.25 4.32 4.32 0 0 0-2.14.1 5.83 5.83 0 0 1-2.46.15 11 11 0 0 1-3.34-.79A4.87 4.87 0 0 1 9.91 27a7.33 7.33 0 0 1 1.18-5c0-.06.07-.12.11-.17a34.92 34.92 0 0 0 3.9-7.59c.73-1.79 1.45-3.58 2.18-5.36A1.25 1.25 0 0 1 18.57 8a1.22 1.22 0 0 1 1.11 1.08 1.15 1.15 0 0 1-.08.61c-1.37 3.29-2.72 6.58-4.15 9.85a27.16 27.16 0 0 1-1.58 2.7c-.39.66-.81 1.29-1.14 2a4.44 4.44 0 0 0-.2 3.15 2.13 2.13 0 0 0 1.25 1.46 8.3 8.3 0 0 0 3.51.65.86.86 0 0 0 .86-.76 2.11 2.11 0 0 1 1.38-1.8 4.93 4.93 0 0 1 2.75-.42 11.08 11.08 0 0 1 1.7.41 1.79 1.79 0 0 1 .56.3 2 2 0 0 1 1 1.71Z" style="fill:#8c8c8c"/></g></g></svg>