<svg xmlns="http://www.w3.org/2000/svg" viewBox="0 0 40 40"><g data-name="Layer 2"><g data-name="Layer 1"><rect width="40" height="40" rx="3" style="fill:#eaeaea"/><path d="M13.82 19.66H7.74c-.13 0-.13 0-.1-.12a6.3 6.3 0 0 1 2.73-3.87c.07-.05.08-.07 0-.13a4.94 4.94 0 0 1-1.49-2.78A5 5 0 0 1 12.81 7 4.81 4.81 0 0 1 17 8a4.77 4.77 0 0 1 1.77 3.05 4.9 4.9 0 0 1-1.51 4.47c-.07.07 0 .08 0 .1A6.55 6.55 0 0 1 19 17.3a6.33 6.33 0 0 1 1 2.26c0 .1 0 .1-.09.1Z" style="fill:#8c8c8c"/><path d="M20.57 7.26a13.08 13.08 0 0 1 9.67 4c-.19 0-.29.13-.4.25l-3.69 3.69c-.12.11-.25.21-.25.4a7.67 7.67 0 0 0-5.33-2.29Z" style="fill:#6d6d6d"/><path d="M34.05 20.74a13.07 13.07 0 0 1-3.92 9.57L25.8 26a7.81 7.81 0 0 0 2.2-5.26Z" style="fill:#a8a8a8"/><path d="M20.57 34.22A13 13 0 0 1 11 30.28q2.16-2.16 4.3-4.33a7.68 7.68 0 0 0 5.28 2.21Z" style="fill:#d3d3d3"/><path d="M20.57 34.22v-6.06A7.74 7.74 0 0 0 25.8 26l4.33 4.32A12.88 12.88 0 0 1 23.05 34a9.42 9.42 0 0 1-2.48.22Z" style="fill:#bcbcbc"/><path d="M15.29 26q-2.14 2.18-4.3 4.33a12.85 12.85 0 0 1-3.7-7 9.9 9.9 0 0 1-.2-2.49h6.06A7.66 7.66 0 0 0 15.29 26Z" style="fill:#dbdbdb"/><path d="M34.05 20.74H28a7.66 7.66 0 0 0-2.09-5.13c0-.19.13-.29.25-.4l3.69-3.69c.11-.12.21-.25.4-.25a13.14 13.14 0 0 1 3.8 9.47Z" style="fill:#969696"/></g></g></svg>