<svg xmlns="http://www.w3.org/2000/svg" viewBox="0 0 56 56"><g data-name="Layer 2"><g data-name="Layer 1"><rect width="56" height="56" rx="6.72" style="fill:#fff"/><path d="M29.13 8.7A20.65 20.65 0 0 1 44.39 15c-.29 0-.45.21-.63.39l-5.82 5.83c-.18.18-.4.34-.39.63a12.12 12.12 0 0 0-8.42-3.61Z" style="fill:#825944"/><path d="M50.4 30a20.56 20.56 0 0 1-6.19 15.1l-6.83-6.82A12.28 12.28 0 0 0 40.84 30Z" style="fill:#d9a887"/><path d="M29.13 51.23A20.38 20.38 0 0 1 14 45q3.39-3.41 6.77-6.83a12.23 12.23 0 0 0 8.33 3.49Z" style="fill:#f7c592"/><path d="M29.13 51.23v-9.55a12.27 12.27 0 0 0 8.25-3.43l6.83 6.82A20.32 20.32 0 0 1 33 50.92a14.66 14.66 0 0 1-3.87.31Z" style="fill:#e5b180"/><path d="M20.8 38.19Q17.43 41.61 14 45a20.16 20.16 0 0 1-5.81-11.1 15.63 15.63 0 0 1-.33-3.9h9.56a12.12 12.12 0 0 0 3.38 8.19Z" style="fill:#fad7af"/><path d="M50.4 30h-9.56a12.14 12.14 0 0 0-3.29-8.1c0-.29.21-.45.39-.63l5.82-5.83c.18-.18.34-.39.63-.39A20.8 20.8 0 0 1 50.4 30Z" style="fill:#bc7062"/><path d="M18.59 28.41H8.25c-.22 0-.22 0-.17-.2a10.73 10.73 0 0 1 4.64-6.59c.12-.08.14-.12 0-.22a8.43 8.43 0 0 1-2.53-4.73 8.28 8.28 0 0 1 .85-5.38 8.27 8.27 0 0 1 5.83-4.38A8.2 8.2 0 0 1 24 8.64a8 8 0 0 1 3 5.19 8.32 8.32 0 0 1-2.56 7.6c-.12.12 0 .13 0 .17a10.87 10.87 0 0 1 4.67 6.64c0 .18 0 .18-.16.18Z" style="fill:#2f2f2f"/></g></g></svg>