<svg xmlns="http://www.w3.org/2000/svg" viewBox="0 0 36 37.06"><defs><style>.cls-1{fill:#f9f9f9;}</style></defs><g id="Layer_2" data-name="Layer 2"><g id="Layer_1-2" data-name="Layer 1"><g id="YWru0U.tif"><path class="cls-1" d="M19.57,37.06H19a.65.65,0,0,1-.25-.48c0-6.58,0-13.16,0-19.74A1.74,1.74,0,0,1,20,15.09c3.28-1.37,6.55-2.77,9.83-4.15Q32.37,9.85,35,8.78c.52-.22.83-.13,1,.28v1a1.91,1.91,0,0,0,0,1.16v13.6a2.43,2.43,0,0,0,0,1.31V27.6a2.53,2.53,0,0,1-1.37,1.34c-4.75,2.61-9.52,5.19-14.32,7.69A2.87,2.87,0,0,0,19.57,37.06Zm3-16.22a2.07,2.07,0,0,0,.82,2,1.75,1.75,0,0,0,1.86-.15,3.92,3.92,0,0,0,1.9-3.75,1.63,1.63,0,0,0-2.69-1.27A4,4,0,0,0,22.53,20.84Zm5.86,4.27c0,.23,0,.4,0,.56a1.48,1.48,0,0,0,2.32,1.18,4,4,0,0,0,2-3.63,1.67,1.67,0,0,0-.84-1.55,1.6,1.6,0,0,0-1.77.23A4,4,0,0,0,28.39,25.11Z"/><path class="cls-1" d="M17,37.06h-.58L10.1,33.68q-4.62-2.49-9.23-5A1.55,1.55,0,0,1,0,27.2q0-7.83,0-15.67c0-.82,0-1.64.07-2.47,0-.33.18-.44.5-.38a1.6,1.6,0,0,1,.31.1C6.06,10.86,11.2,13,16.3,15.24a1.56,1.56,0,0,1,1,1.52V36.32A.91.91,0,0,1,17,37.06ZM15.53,19.51a4.24,4.24,0,0,0-2.24-3.61,1.65,1.65,0,0,0-2.46,1.27A4.12,4.12,0,0,0,13,21.28a1.66,1.66,0,0,0,2.45-1.4C15.51,19.73,15.52,19.59,15.53,19.51Zm-5,3.51a4.3,4.3,0,0,0-1.65-3.18,2.15,2.15,0,0,0-1.16-.46,1.2,1.2,0,0,0-1,.2A2.1,2.1,0,0,0,6,21a3.48,3.48,0,0,0,.25,1.6A3.62,3.62,0,0,0,8.4,24.92a1.48,1.48,0,0,0,2-1.24C10.44,23.46,10.45,23.25,10.48,23Zm-9,1.57A4,4,0,0,0,3.13,28,1.54,1.54,0,0,0,5.7,26.75a3.53,3.53,0,0,0-.31-1.7A3.64,3.64,0,0,0,3.49,23a1.38,1.38,0,0,0-1.75.45A1.89,1.89,0,0,0,1.43,24.59Z"/><path class="cls-1" d="M36,26.15a2.43,2.43,0,0,1,0-1.31Z"/><path class="cls-1" d="M36,11.24a1.91,1.91,0,0,1,0-1.16Z"/><path class="cls-1" d="M18.14,13.49a2.86,2.86,0,0,1-1.07-.27C12.93,11.6,8.84,9.86,4.74,8.16L2,7,1.89,7c-.31-.16-.67-.31-.66-.73s.38-.51.7-.63Q9.63,2.82,17.35.11a1.66,1.66,0,0,1,1.2,0L33.78,5.48a2.3,2.3,0,0,1,.53.23.68.68,0,0,1,.37.62.59.59,0,0,1-.43.53c-2,.84-4,1.7-5.95,2.53-3.21,1.34-6.44,2.66-9.66,4A.85.85,0,0,1,18.14,13.49Zm-.38-5.86a5.79,5.79,0,0,0,2.51-.46c.41-.19.79-.46.78-1a1.13,1.13,0,0,0-.79-1l-.17-.08a5.59,5.59,0,0,0-1.8-.35,5.44,5.44,0,0,0-2.79.49c-.39.2-.76.47-.73,1a1.12,1.12,0,0,0,.76.93A5.77,5.77,0,0,0,17.76,7.63Z"/></g></g></g></svg>