<svg xmlns="http://www.w3.org/2000/svg" viewBox="0 0 40 40"><defs><style>.cls-1{fill:#f9f9f9}</style></defs><g id="Layer_2" data-name="Layer 2"><g id="Layer_1-2" data-name="Layer 1"><path class="cls-1" d="M15 17.06a2.87 2.87 0 0 0-2.7 3 2.89 2.89 0 0 0 2.7 3 2.86 2.86 0 0 0 2.69-3 2.85 2.85 0 0 0-2.69-3Zm10 0a2.87 2.87 0 0 0-2.69 3 2.88 2.88 0 0 0 2.69 3 2.86 2.86 0 0 0 2.7-3 2.86 2.86 0 0 0-2.7-3Z"/><path class="cls-1" d="M34 0H6a6 6 0 0 0-6 6v28a6 6 0 0 0 6 6h28a6 6 0 0 0 6-6V6a6 6 0 0 0-6-6Zm.87 26.52a.1.1 0 0 1 0 .07 24.61 24.61 0 0 1-7.5 3.78.09.09 0 0 1-.11 0 21 21 0 0 1-1.53-2.49.11.11 0 0 1 0-.14 13.94 13.94 0 0 0 2.34-1.11.09.09 0 0 0 0-.16l-.46-.37a.12.12 0 0 0-.1 0 17.76 17.76 0 0 1-15.08 0 .08.08 0 0 0-.09 0l-.47.36a.1.1 0 0 0 0 .16 16.23 16.23 0 0 0 2.34 1.12.09.09 0 0 1 0 .13 17.7 17.7 0 0 1-1.53 2.49.09.09 0 0 1-.11 0 24.79 24.79 0 0 1-7.49-3.78.16.16 0 0 1 0-.07A25.35 25.35 0 0 1 9.56 9.44a24.6 24.6 0 0 1 6.1-1.9.12.12 0 0 1 .1 0 14.1 14.1 0 0 1 .77 1.56 23.2 23.2 0 0 1 6.86 0c.21-.48.5-1.09.76-1.56a.1.1 0 0 1 .1 0 24.81 24.81 0 0 1 6.11 1.9 25.19 25.19 0 0 1 4.51 17.08Z"/></g></g></svg>