<svg xmlns="http://www.w3.org/2000/svg" viewBox="0 0 40 40"><defs><style>.cls-1{fill:#f9f9f9;}</style></defs><g id="Layer_2" data-name="Layer 2"><g id="Layer_1-2" data-name="Layer 1"><path class="cls-1" d="M34,0H6A6,6,0,0,0,0,6V34a6,6,0,0,0,6,6H34a6,6,0,0,0,6-6V6A6,6,0,0,0,34,0ZM31.93,13.8c0,.26,0,.53,0,.79,0,8.14-6.19,17.51-17.52,17.51A17.37,17.37,0,0,1,5,29.34a11.85,11.85,0,0,0,1.47.08,12.33,12.33,0,0,0,7.64-2.63,6.17,6.17,0,0,1-5.75-4.27,6.34,6.34,0,0,0,1.16.11,6.15,6.15,0,0,0,1.62-.22,6.17,6.17,0,0,1-4.94-6V16.3A6.08,6.08,0,0,0,9,17.07a6.18,6.18,0,0,1-1.9-8.22,17.48,17.48,0,0,0,12.68,6.43,6.46,6.46,0,0,1-.15-1.4A6.15,6.15,0,0,1,30.26,9.67a12.35,12.35,0,0,0,3.91-1.5,6.14,6.14,0,0,1-2.71,3.41,12.29,12.29,0,0,0,3.54-1A12.75,12.75,0,0,1,31.93,13.8Z"/></g></g></svg>