<svg xmlns="http://www.w3.org/2000/svg" viewBox="0 0 276.32 18.38"><defs><style>.cls-1{fill:#e25c27;}</style></defs><g id="Layer_2" data-name="Layer 2"><g id="Layer_1-2" data-name="Layer 1"><path d="M17.87,10.76H264.46c3.32,0,6.65.06,10,0h.44a1.5,1.5,0,0,0,0-3h-124l-37.18,0H28.29c-3.33,0-6.66-.06-10,0h-.44a1.5,1.5,0,0,0,0,3Z"/><circle class="cls-1" cx="9.19" cy="9.19" r="1.09"/><path class="cls-1" d="M9.19,0a9.19,9.19,0,1,0,9.19,9.19A9.18,9.18,0,0,0,9.19,0Zm0,13.17a4,4,0,0,1-4-4V3l2.5,2.5L9.19,7V5.21a4,4,0,1,1,0,8Z"/></g></g></svg>