<svg xmlns="http://www.w3.org/2000/svg" viewBox="0 0 276.83 18.38"><defs><style>.cls-1{fill:#e25c27;}</style></defs><g id="Layer_2" data-name="Layer 2"><g id="Layer_1-2" data-name="Layer 1"><path d="M1.45,10.76H248c3.33,0,6.66.06,10,0h.43a1.5,1.5,0,0,0,0-3h-124l-37.18,0H11.87c-3.33,0-6.66-.06-10,0H1.45a1.5,1.5,0,0,0,0,3Z"/><circle class="cls-1" cx="267.64" cy="9.19" r="1.09"/><path class="cls-1" d="M267.64,0a9.19,9.19,0,1,0,9.19,9.19A9.19,9.19,0,0,0,267.64,0Zm0,13.17a4,4,0,0,1-4-4V3l2.5,2.5L267.64,7V5.21a4,4,0,1,1,0,8Z"/></g></g></svg>